Ruda-Black.ufo
<glyph name="exclam" format="2">
  <advance width="293"/>
  <unicode hex="0021"/>
  <outline>
    <contour>
      <point x="79" y="203" type="line"/>
      <point x="213" y="203" type="line"/>
      <point x="231" y="703" type="line"/>
      <point x="63" y="703" type="line"/>
    </contour>
    <contour>
      <point x="60" y="0" type="line"/>
      <point x="235" y="0" type="line"/>
      <point x="235" y="134" type="line"/>
      <point x="60" y="134" type="line"/>
    </contour>
  </outline>
</glyph>
<glyph name="numbersign" format="2">
  <advance width="592"/>
  <unicode hex="0023"/>
  <outline>
    <contour>
      <point x="56" y="0" type="line"/>
      <point x="185" y="0" type="line"/>
      <point x="210" y="164" type="line"/>
      <point x="311" y="164" type="line"/>
      <point x="286" y="0" type="line"/>
      <point x="415" y="0" type="line"/>
      <point x="440" y="164" type="line"/>
      <point x="542" y="164" type="line"/>
      <point x="542" y="296" type="line"/>
      <point x="461" y="296" type="line"/>
      <point x="478" y="400" type="line"/>
      <point x="577" y="400" type="line"/>
      <point x="577" y="532" type="line"/>
      <point x="498" y="532" type="line"/>
      <point x="524" y="695" type="line"/>
      <point x="394" y="695" type="line"/>
      <point x="368" y="532" type="line"/>
      <point x="268" y="532" type="line"/>
      <point x="294" y="695" type="line"/>
      <point x="164" y="695" type="line"/>
      <point x="138" y="532" type="line"/>
      <point x="38" y="532" type="line"/>
      <point x="38" y="400" type="line"/>
      <point x="118" y="400" type="line"/>
      <point x="102" y="296" type="line"/>
      <point x="3" y="296" type="line"/>
      <point x="3" y="164" type="line"/>
      <point x="81" y="164" type="line"/>
    </contour>
    <contour>
      <point x="231" y="296" type="line"/>
      <point x="248" y="400" type="line"/>
      <point x="348" y="400" type="line"/>
      <point x="332" y="296" type="line"/>
    </contour>
  </outline>
</glyph>
<glyph name="dollar" format="2">
  <advance width="544"/>
  <unicode hex="0024"/>
  <outline>
    <contour>
      <point x="202" y="-116" type="line"/>
      <point x="326" y="-116" type="line"/>
      <point x="326" y="-6" type="line"/>
      <point x="437" y="16"/>
      <point x="510" y="94"/>
      <point x="510" y="204" type="curve" smooth="yes"/>
      <point x="510" y="339"/>
      <point x="406" y="385"/>
      <point x="308" y="426" type="curve" smooth="yes"/>
      <point x="240" y="454"/>
      <point x="190" y="475"/>
      <point x="190" y="519" type="curve" smooth="yes"/>
      <point x="190" y="549"/>
      <point x="200" y="560"/>
      <point x="210" y="567" type="curve" smooth="yes"/>
      <point x="220" y="574"/>
      <point x="233" y="578"/>
      <point x="259" y="578" type="curve" smooth="yes"/>
      <point x="340" y="578"/>
      <point x="460" y="555"/>
      <point x="460" y="555" type="curve"/>
      <point x="485" y="683" type="line"/>
      <point x="485" y="683"/>
      <point x="407" y="706"/>
      <point x="326" y="713" type="curve"/>
      <point x="326" y="803" type="line"/>
      <point x="202" y="803" type="line"/>
      <point x="202" y="709" type="line"/>
      <point x="87" y="687"/>
      <point x="29" y="611"/>
      <point x="29" y="519" type="curve" smooth="yes"/>
      <point x="29" y="391"/>
      <point x="130" y="342"/>
      <point x="226" y="303" type="curve" smooth="yes"/>
      <point x="301" y="273"/>
      <point x="350" y="248"/>
      <point x="350" y="198" type="curve" smooth="yes"/>
      <point x="350" y="164"/>
      <point x="340" y="145"/>
      <point x="326" y="136" type="curve" smooth="yes"/>
      <point x="318" y="131"/>
      <point x="304" y="125"/>
      <point x="279" y="125" type="curve" smooth="yes"/>
      <point x="176" y="125"/>
      <point x="53" y="174"/>
      <point x="53" y="174" type="curve"/>
      <point x="53" y="175"/>
      <point x="14" y="49"/>
      <point x="14" y="49" type="curve"/>
      <point x="14" y="49"/>
      <point x="98" y="4"/>
      <point x="202" y="-9" type="curve"/>
    </contour>
  </outline>
</glyph>
<glyph name="plus" format="2">
  <advance width="630"/>
  <unicode hex="002B"/>
  <outline>
    <contour>
      <point x="247" y="4" type="line"/>
      <point x="381" y="4" type="line"/>
      <point x="381" y="227" type="line"/>
      <point x="600" y="227" type="line"/>
      <point x="600" y="359" type="line"/>
      <point x="381" y="359" type="line"/>
      <point x="381" y="578" type="line"/>
      <point x="247" y="578" type="line"/>
      <point x="247" y="359" type="line"/>
      <point x="30" y="359" type="line"/>
      <point x="30" y="227" type="line"/>
      <point x="247" y="227" type="line"/>
    </contour>
  </outline>
</glyph>
<glyph name="one" format="2">
  <advance width="554"/>
  <unicode hex="0031"/>
  <outline>
    <contour>
      <point x="63" y="0" type="line"/>
      <point x="545" y="0" type="line"/>
      <point x="545" y="134" type="line"/>
      <point x="393" y="132" type="line"/>
      <point x="393" y="701" type="line"/>
      <point x="244" y="711" type="line"/>
      <point x="21" y="521" type="line"/>
      <point x="120" y="418" type="line"/>
      <point x="236" y="535" type="line"/>
      <point x="242" y="535" type="line"/>
      <point x="236" y="133" type="line"/>
      <point x="63" y="134" type="line"/>
    </contour>
  </outline>
</glyph>
<glyph name="two" format="2">
  <advance width="586"/>
  <unicode hex="0032"/>
  <outline>
    <contour>
      <point x="40" y="0" type="line"/>
      <point x="544" y="0" type="line"/>
      <point x="544" y="134" type="line"/>
      <point x="265" y="128" type="line"/>
      <point x="265" y="134" type="line"/>
      <point x="265" y="134"/>
      <point x="312" y="179"/>
      <point x="397" y="280" type="curve" smooth="yes"/>
      <point x="460" y="355"/>
      <point x="529" y="443"/>
      <point x="529" y="529" type="curve" smooth="yes"/>
      <point x="529" y="647"/>
      <point x="429" y="716"/>
      <point x="294" y="716" type="curve" smooth="yes"/>
      <point x="182" y="716"/>
      <point x="70" y="648"/>
      <point x="29" y="615" type="curve"/>
      <point x="91" y="499" type="line"/>
      <point x="163" y="542"/>
      <point x="256" y="578"/>
      <point x="312" y="578" type="curve" smooth="yes"/>
      <point x="356" y="578"/>
      <point x="372" y="560"/>
      <point x="372" y="534" type="curve" smooth="yes"/>
      <point x="372" y="479"/>
      <point x="315" y="409"/>
      <point x="233" y="318" type="curve" smooth="yes"/>
      <point x="114" y="185"/>
      <point x="40" y="113"/>
      <point x="40" y="113" type="curve"/>
    </contour>
  </outline>
</glyph>
<glyph name="five" format="2">
  <advance width="552"/>
  <unicode hex="0035"/>
  <outline>
    <contour>
      <point x="266" y="-13" type="curve" smooth="yes"/>
      <point x="421" y="-13"/>
      <point x="517" y="73"/>
      <point x="517" y="221" type="curve" smooth="yes"/>
      <point x="517" y="390"/>
      <point x="394" y="433"/>
      <point x="227" y="444" type="curve"/>
      <point x="247" y="577" type="line"/>
      <point x="486" y="573" type="line"/>
      <point x="486" y="703" type="line"/>
      <point x="117" y="703" type="line"/>
      <point x="56" y="314" type="line"/>
      <point x="56" y="314"/>
      <point x="136" y="316"/>
      <point x="174" y="316" type="curve" smooth="yes"/>
      <point x="277" y="316"/>
      <point x="317" y="306"/>
      <point x="334" y="292" type="curve" smooth="yes"/>
      <point x="347" y="282"/>
      <point x="356" y="249"/>
      <point x="356" y="215" type="curve" smooth="yes"/>
      <point x="356" y="177"/>
      <point x="348" y="147"/>
      <point x="333" y="136" type="curve" smooth="yes"/>
      <point x="322" y="128"/>
      <point x="302" y="123"/>
      <point x="280" y="123" type="curve" smooth="yes"/>
      <point x="195" y="123"/>
      <point x="51" y="180"/>
      <point x="51" y="180" type="curve"/>
      <point x="5" y="66" type="line"/>
      <point x="5" y="66"/>
      <point x="125" y="-13"/>
    </contour>
  </outline>
</glyph>
<glyph name="eight" format="2">
  <advance width="581"/>
  <unicode hex="0038"/>
  <outline>
    <contour>
      <point x="286" y="-13" type="curve" smooth="yes"/>
      <point x="457" y="-13"/>
      <point x="555" y="87"/>
      <point x="555" y="196" type="curve" smooth="yes"/>
      <point x="555" y="283"/>
      <point x="490" y="339"/>
      <point x="437" y="364" type="curve"/>
      <point x="488" y="399"/>
      <point x="526" y="451"/>
      <point x="526" y="526" type="curve" smooth="yes"/>
      <point x="526" y="632"/>
      <point x="448" y="716"/>
      <point x="289" y="716" type="curve" smooth="yes"/>
      <point x="135" y="716"/>
      <point x="54" y="637"/>
      <point x="54" y="527" type="curve" smooth="yes"/>
      <point x="54" y="459"/>
      <point x="81" y="407"/>
      <point x="127" y="373" type="curve"/>
      <point x="73" y="339"/>
      <point x="25" y="279"/>
      <point x="25" y="204" type="curve" smooth="yes"/>
      <point x="25" y="96"/>
      <point x="114" y="-13"/>
    </contour>
    <contour>
      <point x="289" y="119" type="curve" smooth="yes"/>
      <point x="210" y="119"/>
      <point x="183" y="156"/>
      <point x="183" y="204" type="curve" smooth="yes"/>
      <point x="183" y="262"/>
      <point x="214" y="288"/>
      <point x="262" y="305" type="curve"/>
      <point x="365" y="274"/>
      <point x="397" y="246"/>
      <point x="397" y="195" type="curve" smooth="yes"/>
      <point x="397" y="148"/>
      <point x="364" y="119"/>
    </contour>
    <contour>
      <point x="303" y="423" type="curve"/>
      <point x="233" y="450"/>
      <point x="207" y="480"/>
      <point x="207" y="526" type="curve" smooth="yes"/>
      <point x="207" y="565"/>
      <point x="226" y="593"/>
      <point x="290" y="593" type="curve" smooth="yes"/>
      <point x="349" y="593"/>
      <point x="372" y="562"/>
      <point x="372" y="516" type="curve" smooth="yes"/>
      <point x="372" y="468"/>
      <point x="344" y="440"/>
    </contour>
  </outline>
</glyph>
<glyph name="nine" format="2">
  <advance width="590"/>
  <unicode hex="0039"/>
  <outline>
    <contour>
      <point x="282" y="-13" type="curve" smooth="yes"/>
      <point x="479" y="-13"/>
      <point x="552" y="123"/>
      <point x="552" y="358" type="curve" smooth="yes"/>
      <point x="552" y="632"/>
      <point x="446" y="716"/>
      <point x="289" y="716" type="curve" smooth="yes"/>
      <point x="131" y="716"/>
      <point x="38" y="629"/>
      <point x="38" y="479" type="curve" smooth="yes"/>
      <point x="38" y="324"/>
      <point x="138" y="258"/>
      <point x="286" y="258" type="curve" smooth="yes"/>
      <point x="331" y="258"/>
      <point x="389" y="266"/>
      <point x="389" y="266" type="curve"/>
      <point x="385" y="199"/>
      <point x="376" y="155"/>
      <point x="353" y="136" type="curve" smooth="yes"/>
      <point x="342" y="127"/>
      <point x="321" y="121"/>
      <point x="285" y="121" type="curve" smooth="yes"/>
      <point x="216" y="121"/>
      <point x="96" y="169"/>
      <point x="96" y="169" type="curve"/>
      <point x="53" y="52" type="line"/>
      <point x="53" y="52"/>
      <point x="173" y="-13"/>
    </contour>
    <contour>
      <point x="282" y="390" type="curve" smooth="yes"/>
      <point x="201" y="390"/>
      <point x="193" y="426"/>
      <point x="193" y="477" type="curve" smooth="yes"/>
      <point x="193" y="550"/>
      <point x="207" y="585"/>
      <point x="285" y="585" type="curve" smooth="yes"/>
      <point x="313" y="585"/>
      <point x="339" y="582"/>
      <point x="354" y="572" type="curve" smooth="yes"/>
      <point x="371" y="561"/>
      <point x="389" y="537"/>
      <point x="390" y="404" type="curve"/>
      <point x="390" y="404"/>
      <point x="326" y="390"/>
    </contour>
  </outline>
</glyph>
<glyph name="colon" format="2">
  <advance width="337"/>
  <unicode hex="003A"/>
  <outline>
    <contour>
      <point x="81" y="416" type="line"/>
      <point x="256" y="416" type="line"/>
      <point x="256" y="553" type="line"/>
      <point x="81" y="553" type="line"/>
    </contour>
    <contour>
      <point x="81" y="0" type="line"/>
      <point x="256" y="0" type="line"/>
      <point x="256" y="137" type="line"/>
      <point x="81" y="137" type="line"/>
    </contour>
  </outline>
</glyph>
<glyph name="semicolon" format="2">
  <advance width="343"/>
  <unicode hex="003B"/>
  <outline>
    <contour>
      <point x="163" y="-175" type="line"/>
      <point x="210" y="-141"/>
      <point x="255" y="-78"/>
      <point x="255" y="41" type="curve" smooth="yes"/>
      <point x="255" y="132" type="line"/>
      <point x="105" y="132" type="line"/>
      <point x="105" y="-1" type="line" smooth="yes"/>
      <point x="105" y="-60"/>
      <point x="94" y="-100"/>
      <point x="73" y="-131" type="curve"/>
    </contour>
    <contour>
      <point x="94" y="425" type="line"/>
      <point x="269" y="425" type="line"/>
      <point x="269" y="562" type="line"/>
      <point x="94" y="562" type="line"/>
    </contour>
  </outline>
</glyph>
<glyph name="less" format="2">
  <advance width="670"/>
  <unicode hex="003C"/>
  <outline>
    <contour>
      <point x="636" y="4" type="line"/>
      <point x="636" y="150" type="line"/>
      <point x="270" y="293" type="line"/>
      <point x="270" y="299" type="line"/>
      <point x="636" y="442" type="line"/>
      <point x="636" y="588" type="line"/>
      <point x="53" y="349" type="line"/>
      <point x="53" y="243" type="line"/>
    </contour>
  </outline>
</glyph>
<glyph name="equal" format="2">
  <advance width="649"/>
  <unicode hex="003D"/>
  <outline>
    <contour>
      <point x="30" y="371" type="line"/>
      <point x="619" y="371" type="line"/>
      <point x="619" y="504" type="line"/>
      <point x="30" y="504" type="line"/>
    </contour>
    <contour>
      <point x="30" y="79" type="line"/>
      <point x="619" y="79" type="line"/>
      <point x="619" y="212" type="line"/>
      <point x="30" y="212" type="line"/>
    </contour>
  </outline>
</glyph>
<glyph name="greater" format="2">
  <advance width="670"/>
  <unicode hex="003E"/>
  <outline>
    <contour>
      <point x="53" y="4" type="line"/>
      <point x="636" y="243" type="line"/>
      <point x="636" y="349" type="line"/>
      <point x="53" y="588" type="line"/>
      <point x="53" y="442" type="line"/>
      <point x="419" y="299" type="line"/>
      <point x="419" y="293" type="line"/>
      <point x="53" y="150" type="line"/>
    </contour>
  </outline>
</glyph>
<glyph name="A" format="2">
  <advance width="573"/>
  <unicode hex="0041"/>
  <anchor x="552" y="10" name="ogonek"/>
  <outline>
    <contour>
      <point x="-11" y="0" type="line"/>
      <point x="151" y="0" type="line"/>
      <point x="205" y="224" type="line"/>
      <point x="118" y="156" type="line"/>
      <point x="450" y="156" type="line"/>
      <point x="363" y="224" type="line"/>
      <point x="417" y="0" type="line"/>
      <point x="579" y="0" type="line"/>
      <point x="386" y="703" type="line"/>
      <point x="182" y="703" type="line"/>
    </contour>
    <contour>
      <point x="202" y="220" type="line"/>
      <point x="297" y="625" type="line"/>
      <point x="211" y="557" type="line"/>
      <point x="357" y="557" type="line"/>
      <point x="271" y="625" type="line"/>
      <point x="366" y="220" type="line"/>
      <point x="420" y="288" type="line"/>
      <point x="148" y="288" type="line"/>
    </contour>
  </outline>
</glyph>
<glyph name="B" format="2">
  <advance width="655"/>
  <unicode hex="0042"/>
  <outline>
    <contour>
      <point x="344" y="-13" type="curve" smooth="yes"/>
      <point x="468" y="-13"/>
      <point x="593" y="33"/>
      <point x="593" y="216" type="curve" smooth="yes"/>
      <point x="593" y="323"/>
      <point x="524" y="362"/>
      <point x="452" y="381" type="curve"/>
      <point x="493" y="297" type="line"/>
      <point x="493" y="443" type="line"/>
      <point x="465" y="363" type="line"/>
      <point x="504" y="371"/>
      <point x="575" y="416"/>
      <point x="575" y="517" type="curve" smooth="yes"/>
      <point x="575" y="669"/>
      <point x="469" y="716"/>
      <point x="337" y="716" type="curve" smooth="yes"/>
      <point x="236" y="716"/>
      <point x="83" y="702"/>
      <point x="83" y="702" type="curve"/>
      <point x="88" y="329" type="line"/>
      <point x="85" y="6" type="line"/>
      <point x="85" y="6"/>
      <point x="240" y="-13"/>
    </contour>
    <contour>
      <point x="345" y="113" type="curve" smooth="yes"/>
      <point x="286" y="113"/>
      <point x="226" y="121"/>
      <point x="228" y="120" type="curve"/>
      <point x="242" y="49" type="line"/>
      <point x="241" y="374" type="line"/>
      <point x="171" y="304" type="line"/>
      <point x="333" y="304" type="line" smooth="yes"/>
      <point x="393" y="304"/>
      <point x="430" y="284"/>
      <point x="430" y="214" type="curve" smooth="yes"/>
      <point x="430" y="145"/>
      <point x="416" y="113"/>
    </contour>
    <contour>
      <point x="341" y="426" type="curve" smooth="yes"/>
      <point x="170" y="426" type="line"/>
      <point x="240" y="356" type="line"/>
      <point x="240" y="659" type="line"/>
      <point x="196" y="586" type="line"/>
      <point x="246" y="589"/>
      <point x="271" y="593"/>
      <point x="334" y="593" type="curve" smooth="yes"/>
      <point x="392" y="593"/>
      <point x="415" y="573"/>
      <point x="415" y="509" type="curve" smooth="yes"/>
      <point x="415" y="450"/>
      <point x="399" y="426"/>
    </contour>
  </outline>
</glyph>
<glyph name="G" format="2">
  <advance width="654"/>
  <unicode hex="0047"/>
  <outline>
    <contour>
      <point x="349" y="-13" type="curve" smooth="yes"/>
      <point x="479" y="-13"/>
      <point x="583" y="33"/>
      <point x="583" y="33" type="curve"/>
      <point x="583" y="395" type="line"/>
      <point x="328" y="395" type="line"/>
      <point x="328" y="282" type="line"/>
      <point x="500" y="270" type="line"/>
      <point x="430" y="345" type="line"/>
      <point x="430" y="128" type="line"/>
      <point x="411" y="124"/>
      <point x="386" y="122"/>
      <point x="357" y="122" type="curve" smooth="yes"/>
      <point x="297" y="122"/>
      <point x="269" y="135"/>
      <point x="257" y="146" type="curve" smooth="yes"/>
      <point x="242" y="161"/>
      <point x="213" y="205"/>
      <point x="213" y="353" type="curve" smooth="yes"/>
      <point x="213" y="482"/>
      <point x="234" y="540"/>
      <point x="255" y="559" type="curve" smooth="yes"/>
      <point x="270" y="572"/>
      <point x="299" y="578"/>
      <point x="361" y="578" type="curve" smooth="yes"/>
      <point x="431" y="578"/>
      <point x="510" y="569"/>
      <point x="564" y="563" type="curve"/>
      <point x="582" y="690" type="line"/>
      <point x="533" y="702"/>
      <point x="435" y="716"/>
      <point x="367" y="716" type="curve" smooth="yes"/>
      <point x="177" y="716"/>
      <point x="50" y="655"/>
      <point x="50" y="354" type="curve" smooth="yes"/>
      <point x="50" y="48"/>
      <point x="188" y="-13"/>
    </contour>
  </outline>
</glyph>
<glyph name="H" format="2">
  <advance width="706"/>
  <unicode hex="0048"/>
  <anchor x="353" y="352" name="center"/>
  <anchor x="20" y="703" name="topleft"/>
  <outline>
    <contour>
      <point x="83" y="0" type="line"/>
      <point x="240" y="0" type="line"/>
      <point x="236" y="340" type="line"/>
      <point x="167" y="290" type="line"/>
      <point x="539" y="290" type="line"/>
      <point x="470" y="340" type="line"/>
      <point x="466" y="0" type="line"/>
      <point x="623" y="0" type="line"/>
      <point x="623" y="703" type="line"/>
      <point x="466" y="703" type="line"/>
      <point x="470" y="374" type="line"/>
      <point x="539" y="424" type="line"/>
      <point x="167" y="424" type="line"/>
      <point x="236" y="374" type="line"/>
      <point x="240" y="703" type="line"/>
      <point x="83" y="703" type="line"/>
    </contour>
  </outline>
</glyph>
<glyph name="I" format="2">
  <advance width="324"/>
  <unicode hex="0049"/>
  <anchor x="222" y="10" name="ogonek"/>
  <anchor x="20" y="703" name="topleft"/>
  <outline>
    <contour>
      <point x="83" y="0" type="line"/>
      <point x="241" y="0" type="line"/>
      <point x="238" y="390" type="line"/>
      <point x="241" y="703" type="line"/>
      <point x="83" y="703" type="line"/>
      <point x="87" y="324" type="line"/>
    </contour>
  </outline>
</glyph>
<glyph name="T" format="2">
  <advance width="516"/>
  <unicode hex="0054"/>
  <anchor x="258" y="352" name="center"/>
  <outline>
    <contour>
      <point x="177" y="0" type="line"/>
      <point x="334" y="0" type="line"/>
      <point x="331" y="572" type="line"/>
      <point x="531" y="569" type="line"/>
      <point x="531" y="703" type="line"/>
      <point x="-16" y="703" type="line"/>
      <point x="-16" y="569" type="line"/>
      <point x="180" y="572" type="line"/>
    </contour>
  </outline>
</glyph>
<glyph name="X" format="2">
  <advance width="621"/>
  <unicode hex="0058"/>
  <outline>
    <contour>
      <point x="-4" y="0" type="line"/>
      <point x="170" y="0" type="line"/>
      <point x="341" y="319" type="line"/>
      <point x="238" y="257" type="line"/>
      <point x="384" y="257" type="line"/>
      <point x="282" y="319" type="line"/>
      <point x="451" y="0" type="line"/>
      <point x="625" y="0" type="line"/>
      <point x="376" y="417" type="line"/>
      <point x="376" y="297" type="line"/>
      <point x="615" y="703" type="line"/>
      <point x="447" y="703" type="line"/>
      <point x="282" y="390" type="line"/>
      <point x="384" y="452" type="line"/>
      <point x="238" y="452" type="line"/>
      <point x="340" y="390" type="line"/>
      <point x="173" y="703" type="line"/>
      <point x="5" y="703" type="line"/>
      <point x="245" y="297" type="line"/>
      <point x="245" y="417" type="line"/>
    </contour>
  </outline>
</glyph>
<glyph name="Y" format="2">
  <advance width="580"/>
  <unicode hex="0059"/>
  <anchor x="20" y="703" name="topleft"/>
  <outline>
    <contour>
      <point x="209" y="0" type="line"/>
      <point x="368" y="0" type="line"/>
      <point x="366" y="253" type="line"/>
      <point x="582" y="703" type="line"/>
      <point x="414" y="703" type="line"/>
      <point x="292" y="381" type="line"/>
      <point x="286" y="381" type="line"/>
      <point x="164" y="703" type="line"/>
      <point x="-4" y="703" type="line"/>
      <point x="212" y="253" type="line"/>
    </contour>
  </outline>
</glyph>
<glyph name="backslash" format="2">
  <advance width="492"/>
  <unicode hex="005C"/>
  <outline>
    <contour>
      <point x="363" y="-98" type="line"/>
      <point x="508" y="-98" type="line"/>
      <point x="307" y="333" type="line"/>
      <point x="146" y="703" type="line"/>
      <point x="0" y="703" type="line"/>
      <point x="196" y="281" type="line"/>
    </contour>
  </outline>
</glyph>
<glyph name="asciicircum" format="2">
  <advance width="526"/>
  <unicode hex="005E"/>
  <outline>
    <contour>
      <point x="181" y="312" type="line"/>
      <point x="260" y="577" type="line"/>
      <point x="266" y="577" type="line"/>
      <point x="345" y="312" type="line"/>
      <point x="490" y="324" type="line"/>
      <point x="337" y="706" type="line"/>
      <point x="189" y="706" type="line"/>
      <point x="36" y="324" type="line"/>
    </contour>
  </outline>
</glyph>
<glyph name="b" format="2">
  <advance width="624"/>
  <unicode hex="0062"/>
  <outline>
    <contour>
      <point x="338" y="-13" type="curve" smooth="yes"/>
      <point x="453" y="-13"/>
      <point x="576" y="46"/>
      <point x="576" y="302" type="curve" smooth="yes"/>
      <point x="576" y="513"/>
      <point x="493" y="601"/>
      <point x="358" y="601" type="curve" smooth="yes"/>
      <point x="302" y="601"/>
      <point x="229" y="586"/>
      <point x="229" y="586" type="curve"/>
      <point x="229" y="761" type="line"/>
      <point x="74" y="761" type="line"/>
      <point x="74" y="31" type="line"/>
      <point x="149" y="8"/>
      <point x="269" y="-13"/>
    </contour>
    <contour>
      <point x="328" y="113" type="curve" smooth="yes"/>
      <point x="281" y="113"/>
      <point x="229" y="123"/>
      <point x="229" y="123" type="curve"/>
      <point x="229" y="461" type="line"/>
      <point x="229" y="461"/>
      <point x="280" y="474"/>
      <point x="335" y="474" type="curve" smooth="yes"/>
      <point x="368" y="474"/>
      <point x="385" y="470"/>
      <point x="395" y="460" type="curve" smooth="yes"/>
      <point x="411" y="445"/>
      <point x="418" y="412"/>
      <point x="418" y="319" type="curve" smooth="yes"/>
      <point x="418" y="171"/>
      <point x="400" y="139"/>
      <point x="383" y="125" type="curve" smooth="yes"/>
      <point x="372" y="116"/>
      <point x="356" y="113"/>
    </contour>
  </outline>
</glyph>
<glyph name="c" format="2">
  <advance width="544"/>
  <unicode hex="0063"/>
  <outline>
    <contour>
      <point x="314" y="-13" type="curve" smooth="yes"/>
      <point x="443" y="-13"/>
      <point x="524" y="48"/>
      <point x="524" y="48" type="curve"/>
      <point x="482" y="158" type="line"/>
      <point x="482" y="158"/>
      <point x="370" y="110"/>
      <point x="307" y="110" type="curve" smooth="yes"/>
      <point x="278" y="110"/>
      <point x="262" y="119"/>
      <point x="254" y="125" type="curve" smooth="yes"/>
      <point x="233" y="141"/>
      <point x="206" y="180"/>
      <point x="206" y="296" type="curve" smooth="yes"/>
      <point x="206" y="377"/>
      <point x="219" y="431"/>
      <point x="243" y="456" type="curve" smooth="yes"/>
      <point x="255" y="468"/>
      <point x="273" y="478"/>
      <point x="329" y="478" type="curve" smooth="yes"/>
      <point x="383" y="478"/>
      <point x="453" y="468"/>
      <point x="492" y="462" type="curve"/>
      <point x="509" y="579" type="line"/>
      <point x="479" y="587"/>
      <point x="415" y="601"/>
      <point x="340" y="601" type="curve" smooth="yes"/>
      <point x="182" y="601"/>
      <point x="48" y="539"/>
      <point x="48" y="296" type="curve" smooth="yes"/>
      <point x="48" y="76"/>
      <point x="159" y="-13"/>
    </contour>
  </outline>
</glyph>
<glyph name="j" format="2">
  <advance width="346"/>
  <unicode hex="006A"/>
  <outline>
    <contour>
      <point x="69" y="-179" type="curve" smooth="yes"/>
      <point x="169" y="-179"/>
      <point x="262" y="-118"/>
      <point x="262" y="69" type="curve" smooth="yes"/>
      <point x="262" y="588" type="line"/>
      <point x="107" y="588" type="line"/>
      <point x="107" y="70" type="line" smooth="yes"/>
      <point x="107" y="-33"/>
      <point x="104" y="-51"/>
      <point x="61" y="-51" type="curve" smooth="yes"/>
      <point x="32" y="-51"/>
      <point x="-22" y="-43"/>
      <point x="-22" y="-43" type="curve"/>
      <point x="-38" y="-169" type="line"/>
      <point x="-38" y="-169"/>
      <point x="28" y="-179"/>
    </contour>
    <contour>
      <point x="107" y="668" type="line"/>
      <point x="270" y="668" type="line"/>
      <point x="270" y="776" type="line"/>
      <point x="107" y="776" type="line"/>
    </contour>
  </outline>
</glyph>
<glyph name="n" format="2">
  <advance width="632"/>
  <unicode hex="006E"/>
  <outline>
    <contour>
      <point x="79" y="0" type="line"/>
      <point x="234" y="0" type="line"/>
      <point x="234" y="424" type="line"/>
      <point x="266" y="446"/>
      <point x="318" y="466"/>
      <point x="357" y="466" type="curve" smooth="yes"/>
      <point x="376" y="466"/>
      <point x="389" y="461"/>
      <point x="397" y="451" type="curve" smooth="yes"/>
      <point x="410" y="435"/>
      <point x="411" y="411"/>
      <point x="411" y="356" type="curve" smooth="yes"/>
      <point x="411" y="0" type="line"/>
      <point x="566" y="0" type="line"/>
      <point x="566" y="385" type="line" smooth="yes"/>
      <point x="566" y="509"/>
      <point x="539" y="601"/>
      <point x="416" y="601" type="curve" smooth="yes"/>
      <point x="328" y="601"/>
      <point x="256" y="561"/>
      <point x="202" y="529" type="curve"/>
      <point x="196" y="529" type="line"/>
      <point x="178" y="588" type="line"/>
      <point x="79" y="588" type="line"/>
    </contour>
  </outline>
</glyph>
<glyph name="o" format="2">
  <advance width="612"/>
  <unicode hex="006F"/>
  <anchor x="306" y="294" name="center"/>
  <anchor x="551" y="10" name="ogonek"/>
  <anchor x="592" y="588" name="topright"/>
  <outline>
    <contour>
      <point x="307" y="-13" type="curve" smooth="yes"/>
      <point x="502" y="-13"/>
      <point x="564" y="105"/>
      <point x="564" y="294" type="curve" smooth="yes"/>
      <point x="564" y="483"/>
      <point x="502" y="601"/>
      <point x="307" y="601" type="curve" smooth="yes"/>
      <point x="112" y="601"/>
      <point x="48" y="483"/>
      <point x="48" y="294" type="curve" smooth="yes"/>
      <point x="48" y="105"/>
      <point x="112" y="-13"/>
    </contour>
    <contour>
      <point x="307" y="105" type="curve" smooth="yes"/>
      <point x="229" y="105"/>
      <point x="206" y="141"/>
      <point x="206" y="294" type="curve" smooth="yes"/>
      <point x="206" y="448"/>
      <point x="230" y="483"/>
      <point x="307" y="483" type="curve" smooth="yes"/>
      <point x="383" y="483"/>
      <point x="406" y="448"/>
      <point x="406" y="294" type="curve" smooth="yes"/>
      <point x="406" y="141"/>
      <point x="384" y="105"/>
    </contour>
  </outline>
</glyph>
<glyph name="r" format="2">
  <advance width="430"/>
  <unicode hex="0072"/>
  <outline>
    <contour>
      <point x="79" y="0" type="line"/>
      <point x="234" y="0" type="line"/>
      <point x="234" y="423" type="line"/>
      <point x="263" y="441"/>
      <point x="308" y="459"/>
      <point x="359" y="459" type="curve" smooth="yes"/>
      <point x="386" y="459"/>
      <point x="414" y="456"/>
      <point x="414" y="456" type="curve"/>
      <point x="426" y="590" type="line"/>
      <point x="426" y="590"/>
      <point x="407" y="601"/>
      <point x="361" y="601" type="curve" smooth="yes"/>
      <point x="289" y="601"/>
      <point x="201" y="526"/>
      <point x="201" y="526" type="curve"/>
      <point x="195" y="526" type="line"/>
      <point x="175" y="588" type="line"/>
      <point x="79" y="588" type="line"/>
    </contour>
  </outline>
</glyph>
<glyph name="x" format="2">
  <advance width="582"/>
  <unicode hex="0078"/>
  <outline>
    <contour>
      <point x="4" y="0" type="line"/>
      <point x="170" y="0" type="line"/>
      <point x="284" y="218" type="line"/>
      <point x="290" y="218" type="line"/>
      <point x="404" y="0" type="line"/>
      <point x="570" y="0" type="line"/>
      <point x="379" y="309" type="line"/>
      <point x="559" y="588" type="line"/>
      <point x="398" y="588" type="line"/>
      <point x="290" y="394" type="line"/>
      <point x="284" y="394" type="line"/>
      <point x="176" y="588" type="line"/>
      <point x="15" y="588" type="line"/>
      <point x="195" y="309" type="line"/>
    </contour>
  </outline>
</glyph>
<glyph name="y" format="2">
  <advance width="536"/>
  <unicode hex="0079"/>
  <outline>
    <contour>
      <point x="112" y="-166" type="line"/>
      <point x="273" y="-166" type="line"/>
      <point x="331" y="28" type="line"/>
      <point x="536" y="588" type="line"/>
      <point x="375" y="588" type="line"/>
      <point x="272" y="196" type="line"/>
      <point x="266" y="196" type="line"/>
      <point x="160" y="588" type="line"/>
      <point x="0" y="588" type="line"/>
      <point x="198" y="48" type="line"/>
    </contour>
  </outline>
</glyph>
<glyph name="z" format="2">
  <advance width="506"/>
  <unicode hex="007A"/>
  <outline>
    <contour>
      <point x="11" y="0" type="line"/>
      <point x="486" y="0" type="line"/>
      <point x="486" y="127" type="line"/>
      <point x="202" y="115" type="line"/>
      <point x="202" y="121" type="line"/>
      <point x="479" y="484" type="line"/>
      <point x="479" y="588" type="line"/>
      <point x="25" y="588" type="line"/>
      <point x="25" y="461" type="line"/>
      <point x="291" y="471" type="line"/>
      <point x="291" y="466" type="line"/>
      <point x="11" y="104" type="line"/>
    </contour>
  </outline>
</glyph>
<glyph name="braceright" format="2">
  <advance width="464"/>
  <unicode hex="007D"/>
  <outline>
    <contour>
      <point x="102" y="-121" type="line" smooth="yes"/>
      <point x="228" y="-123"/>
      <point x="305" y="-60"/>
      <point x="305" y="92" type="curve" smooth="yes"/>
      <point x="305" y="196" type="line" smooth="yes"/>
      <point x="305" y="267"/>
      <point x="328" y="277"/>
      <point x="430" y="291" type="curve"/>
      <point x="430" y="394" type="line"/>
      <point x="332" y="407"/>
      <point x="305" y="418"/>
      <point x="305" y="489" type="curve" smooth="yes"/>
      <point x="305" y="583" type="line" smooth="yes"/>
      <point x="305" y="733"/>
      <point x="224" y="791"/>
      <point x="105" y="791" type="curve" smooth="yes"/>
      <point x="47" y="791"/>
      <point x="12" y="785"/>
      <point x="12" y="785" type="curve"/>
      <point x="20" y="675" type="line"/>
      <point x="20" y="675"/>
      <point x="88" y="680"/>
      <point x="103" y="680" type="curve" smooth="yes"/>
      <point x="137" y="680"/>
      <point x="150" y="669"/>
      <point x="150" y="581" type="curve" smooth="yes"/>
      <point x="150" y="488" type="line" smooth="yes"/>
      <point x="150" y="406"/>
      <point x="188" y="365"/>
      <point x="236" y="345" type="curve"/>
      <point x="236" y="339" type="line"/>
      <point x="188" y="317"/>
      <point x="150" y="277"/>
      <point x="150" y="193" type="curve" smooth="yes"/>
      <point x="150" y="92" type="line" smooth="yes"/>
      <point x="150" y="-1"/>
      <point x="138" y="-12"/>
      <point x="107" y="-11" type="curve" smooth="yes"/>
      <point x="20" y="-8" type="line"/>
      <point x="12" y="-119" type="line"/>
    </contour>
  </outline>
</glyph>
<glyph name="sterling" format="2">
  <advance width="599"/>
  <unicode hex="00A3"/>
  <outline>
    <contour>
      <point x="50" y="0" type="line"/>
      <point x="551" y="0" type="line"/>
      <point x="551" y="134" type="line"/>
      <point x="297" y="132" type="line"/>
      <point x="297" y="325" type="line"/>
      <point x="485" y="325" type="line"/>
      <point x="485" y="441" type="line"/>
      <point x="299" y="441" type="line"/>
      <point x="302" y="522"/>
      <point x="315" y="557"/>
      <point x="330" y="570" type="curve" smooth="yes"/>
      <point x="343" y="581"/>
      <point x="362" y="583"/>
      <point x="396" y="583" type="curve" smooth="yes"/>
      <point x="436" y="583"/>
      <point x="494" y="577"/>
      <point x="551" y="569" type="curve"/>
      <point x="567" y="693" type="line"/>
      <point x="521" y="705"/>
      <point x="456" y="716"/>
      <point x="407" y="716" type="curve" smooth="yes"/>
      <point x="270" y="716"/>
      <point x="157" y="658"/>
      <point x="143" y="441" type="curve"/>
      <point x="50" y="441" type="line"/>
      <point x="50" y="325" type="line"/>
      <point x="142" y="325" type="line"/>
      <point x="142" y="132" type="line"/>
      <point x="50" y="132" type="line"/>
    </contour>
  </outline>
</glyph>
<glyph name="section" format="2">
  <advance width="584"/>
  <unicode hex="00A7"/>
  <outline>
    <contour>
      <point x="268" y="-93" type="curve" smooth="yes"/>
      <point x="382" y="-93"/>
      <point x="507" y="-37"/>
      <point x="507" y="99" type="curve" smooth="yes"/>
      <point x="507" y="113"/>
      <point x="505" y="161"/>
      <point x="478" y="195" type="curve"/>
      <point x="514" y="220"/>
      <point x="541" y="253"/>
      <point x="541" y="309" type="curve" smooth="yes"/>
      <point x="541" y="404"/>
      <point x="463" y="437"/>
      <point x="383" y="460" type="curve" smooth="yes"/>
      <point x="298" y="484"/>
      <point x="211" y="498"/>
      <point x="211" y="545" type="curve" smooth="yes"/>
      <point x="211" y="552"/>
      <point x="213" y="569"/>
      <point x="224" y="576" type="curve" smooth="yes"/>
      <point x="236" y="584"/>
      <point x="265" y="585"/>
      <point x="279" y="585" type="curve" smooth="yes"/>
      <point x="355" y="585"/>
      <point x="453" y="557"/>
      <point x="453" y="557" type="curve"/>
      <point x="480" y="685" type="line"/>
      <point x="455" y="694"/>
      <point x="385" y="715"/>
      <point x="302" y="715" type="curve" smooth="yes"/>
      <point x="157" y="715"/>
      <point x="60" y="652"/>
      <point x="60" y="548" type="curve" smooth="yes"/>
      <point x="60" y="509"/>
      <point x="74" y="475"/>
      <point x="102" y="449" type="curve"/>
      <point x="61" y="420"/>
      <point x="39" y="376"/>
      <point x="39" y="324" type="curve" smooth="yes"/>
      <point x="39" y="220"/>
      <point x="127" y="187"/>
      <point x="210" y="162" type="curve" smooth="yes"/>
      <point x="285" y="139"/>
      <point x="356" y="123"/>
      <point x="356" y="80" type="curve" smooth="yes"/>
      <point x="356" y="62"/>
      <point x="345" y="49"/>
      <point x="336" y="43" type="curve" smooth="yes"/>
      <point x="333" y="41"/>
      <point x="315" y="38"/>
      <point x="296" y="38" type="curve" smooth="yes"/>
      <point x="212" y="38"/>
      <point x="75" y="95"/>
      <point x="75" y="95" type="curve"/>
      <point x="32" y="-32" type="line"/>
      <point x="32" y="-32"/>
      <point x="149" y="-93"/>
    </contour>
    <contour>
      <point x="373" y="256" type="curve"/>
      <point x="335" y="268"/>
      <point x="307" y="275"/>
      <point x="273" y="286" type="curve" smooth="yes"/>
      <point x="200" y="309"/>
      <point x="189" y="319"/>
      <point x="189" y="334" type="curve" smooth="yes"/>
      <point x="189" y="348"/>
      <point x="199" y="369"/>
      <point x="207" y="380" type="curve"/>
      <point x="223" y="375"/>
      <point x="242" y="369"/>
      <point x="313" y="344" type="curve" smooth="yes"/>
      <point x="356" y="329"/>
      <point x="387" y="317"/>
      <point x="387" y="290" type="curve" smooth="yes"/>
      <point x="387" y="279"/>
      <point x="382" y="265"/>
    </contour>
  </outline>
</glyph>
<glyph name="dieresis" format="2">
  <advance width="372"/>
  <unicode hex="00A8"/>
  <outline>
    <contour>
      <point x="0" y="668" type="line"/>
      <point x="147" y="668" type="line"/>
      <point x="147" y="776" type="line"/>
      <point x="0" y="776" type="line"/>
    </contour>
    <contour>
      <point x="225" y="668" type="line"/>
      <point x="372" y="668" type="line"/>
      <point x="372" y="776" type="line"/>
      <point x="225" y="776" type="line"/>
    </contour>
  </outline>
</glyph>
<glyph name="guillemotleft" format="2">
  <advance width="585"/>
  <unicode hex="00AB"/>
  <outline>
    <contour>
      <point x="179" y="74" type="line"/>
      <point x="294" y="141" type="line"/>
      <point x="170" y="342" type="line"/>
      <point x="170" y="348" type="line"/>
      <point x="294" y="549" type="line"/>
      <point x="179" y="616" type="line"/>
      <point x="18" y="345" type="line"/>
    </contour>
    <contour>
      <point x="454" y="78" type="line"/>
      <point x="568" y="145" type="line"/>
      <point x="447" y="342" type="line"/>
      <point x="447" y="348" type="line"/>
      <point x="568" y="545" type="line"/>
      <point x="454" y="612" type="line"/>
      <point x="295" y="345" type="line"/>
    </contour>
  </outline>
</glyph>
<glyph name="logicalnot" format="2">
  <advance width="601"/>
  <unicode hex="00AC"/>
  <outline>
    <contour>
      <point x="441" y="119" type="line"/>
      <point x="578" y="119" type="line"/>
      <point x="578" y="359" type="line"/>
      <point x="6" y="359" type="line"/>
      <point x="6" y="226" type="line"/>
      <point x="441" y="226" type="line"/>
    </contour>
  </outline>
</glyph>
<glyph name="macron" format="2">
  <advance width="392"/>
  <unicode hex="00AF"/>
  <outline>
    <contour>
      <point x="0" y="668" type="line"/>
      <point x="393" y="668" type="line"/>
      <point x="393" y="764" type="line"/>
      <point x="0" y="764" type="line"/>
    </contour>
  </outline>
</glyph>
<glyph name="twosuperior" format="2">
  <advance width="412"/>
  <unicode hex="00B2"/>
  <outline>
    <contour>
      <point x="63" y="298" type="line"/>
      <point x="362" y="298" type="line"/>
      <point x="362" y="404" type="line"/>
      <point x="228" y="397" type="line"/>
      <point x="228" y="400" type="line"/>
      <point x="290" y="469" type="line" smooth="yes"/>
      <point x="321" y="504"/>
      <point x="349" y="545"/>
      <point x="349" y="597" type="curve" smooth="yes"/>
      <point x="349" y="669"/>
      <point x="287" y="714"/>
      <point x="217" y="714" type="curve" smooth="yes"/>
      <point x="134" y="714"/>
      <point x="70" y="681"/>
      <point x="41" y="665" type="curve"/>
      <point x="85" y="563" type="line"/>
      <point x="117" y="581"/>
      <point x="178" y="607"/>
      <point x="208" y="607" type="curve" smooth="yes"/>
      <point x="223" y="607"/>
      <point x="229" y="600"/>
      <point x="229" y="591" type="curve" smooth="yes"/>
      <point x="229" y="577"/>
      <point x="217" y="560"/>
      <point x="155" y="485" type="curve" smooth="yes"/>
      <point x="63" y="374" type="line"/>
    </contour>
  </outline>
</glyph>
<glyph name="cedilla" format="2">
  <advance width="208"/>
  <unicode hex="00B8"/>
  <outline>
    <contour>
      <point x="87" y="-179" type="curve" smooth="yes"/>
      <point x="164" y="-179"/>
      <point x="208" y="-136"/>
      <point x="208" y="-68" type="curve" smooth="yes"/>
      <point x="208" y="-13"/>
      <point x="187" y="37"/>
      <point x="186" y="40" type="curve"/>
      <point x="110" y="20" type="line"/>
      <point x="111" y="15"/>
      <point x="121" y="-27"/>
      <point x="121" y="-58" type="curve" smooth="yes"/>
      <point x="121" y="-85"/>
      <point x="106" y="-88"/>
      <point x="75" y="-88" type="curve" smooth="yes"/>
      <point x="45" y="-88"/>
      <point x="0" y="-83"/>
      <point x="0" y="-83" type="curve"/>
      <point x="0" y="-170" type="line"/>
      <point x="0" y="-170"/>
      <point x="42" y="-179"/>
    </contour>
  </outline>
</glyph>
<glyph name="onehalf" format="2">
  <advance width="1028"/>
  <unicode hex="00BD"/>
  <outline>
    <contour>
      <point x="267" y="-9" type="line"/>
      <point x="412" y="-9" type="line"/>
      <point x="591" y="343" type="line"/>
      <point x="798" y="733" type="line"/>
      <point x="654" y="733" type="line"/>
      <point x="496" y="406" type="line"/>
    </contour>
    <contour>
      <point x="65" y="298" type="line"/>
      <point x="368" y="298" type="line"/>
      <point x="368" y="404" type="line"/>
      <point x="283" y="404" type="line"/>
      <point x="283" y="706" type="line"/>
      <point x="189" y="713" type="line"/>
      <point x="27" y="613" type="line"/>
      <point x="86" y="527" type="line"/>
      <point x="160" y="581" type="line"/>
      <point x="164" y="581" type="line"/>
      <point x="164" y="404" type="line"/>
      <point x="65" y="404" type="line"/>
    </contour>
    <contour>
      <point x="671" y="0" type="line"/>
      <point x="975" y="0" type="line"/>
      <point x="975" y="106" type="line"/>
      <point x="844" y="102" type="line"/>
      <point x="844" y="104" type="line"/>
      <point x="844" y="104"/>
      <point x="876" y="139"/>
      <point x="890" y="155" type="curve" smooth="yes"/>
      <point x="924" y="195"/>
      <point x="962" y="247"/>
      <point x="962" y="299" type="curve" smooth="yes"/>
      <point x="962" y="371"/>
      <point x="900" y="416"/>
      <point x="830" y="416" type="curve" smooth="yes"/>
      <point x="754" y="416"/>
      <point x="683" y="383"/>
      <point x="654" y="367" type="curve"/>
      <point x="698" y="265" type="line"/>
      <point x="730" y="283"/>
      <point x="791" y="309"/>
      <point x="821" y="309" type="curve" smooth="yes"/>
      <point x="836" y="309"/>
      <point x="842" y="302"/>
      <point x="842" y="293" type="curve" smooth="yes"/>
      <point x="842" y="279"/>
      <point x="833" y="261"/>
      <point x="776" y="197" type="curve" smooth="yes"/>
      <point x="736" y="151"/>
      <point x="671" y="78"/>
      <point x="671" y="78" type="curve"/>
    </contour>
  </outline>
</glyph>
<glyph name="questiondown" format="2">
  <advance width="493"/>
  <unicode hex="00BF"/>
  <outline>
    <contour>
      <point x="373" y="385" type="line"/>
      <point x="230" y="385" type="line"/>
      <point x="223" y="316"/>
      <point x="188" y="293"/>
      <point x="145" y="265" type="curve" smooth="yes"/>
      <point x="80" y="223"/>
      <point x="9" y="172"/>
      <point x="9" y="69" type="curve" smooth="yes"/>
      <point x="9" y="-45"/>
      <point x="108" y="-128"/>
      <point x="251" y="-128" type="curve" smooth="yes"/>
      <point x="370" y="-128"/>
      <point x="448" y="-85"/>
      <point x="485" y="-66" type="curve"/>
      <point x="437" y="52" type="line"/>
      <point x="380" y="33"/>
      <point x="307" y="10"/>
      <point x="251" y="10" type="curve" smooth="yes"/>
      <point x="213" y="10"/>
      <point x="199" y="16"/>
      <point x="192" y="21" type="curve" smooth="yes"/>
      <point x="180" y="30"/>
      <point x="169" y="40"/>
      <point x="169" y="69" type="curve" smooth="yes"/>
      <point x="169" y="115"/>
      <point x="209" y="147"/>
      <point x="249" y="174" type="curve" smooth="yes"/>
      <point x="309" y="215"/>
      <point x="373" y="258"/>
      <point x="373" y="366" type="curve" smooth="yes"/>
    </contour>
    <contour>
      <point x="388" y="588" type="line"/>
      <point x="213" y="588" type="line"/>
      <point x="213" y="454" type="line"/>
      <point x="388" y="454" type="line"/>
    </contour>
  </outline>
</glyph>
<glyph name="AE" format="2">
  <advance width="849"/>
  <unicode hex="00C6"/>
  <outline>
    <contour>
      <point x="-17" y="0" type="line"/>
      <point x="142" y="0" type="line"/>
      <point x="210" y="156" type="line"/>
      <point x="381" y="156" type="line"/>
      <point x="381" y="0" type="line"/>
      <point x="803" y="0" type="line"/>
      <point x="803" y="134" type="line"/>
      <point x="537" y="132" type="line"/>
      <point x="533" y="290" type="line"/>
      <point x="778" y="290" type="line"/>
      <point x="778" y="422" type="line"/>
      <point x="533" y="422" type="line"/>
      <point x="537" y="570" type="line"/>
      <point x="803" y="567" type="line"/>
      <point x="803" y="703" type="line"/>
      <point x="301" y="703" type="line"/>
    </contour>
    <contour>
      <point x="251" y="288" type="line"/>
      <point x="363" y="549" type="line"/>
      <point x="381" y="549" type="line"/>
      <point x="381" y="288" type="line"/>
    </contour>
  </outline>
</glyph>
<glyph name="Iacute" format="2">
  <advance width="324"/>
  <unicode hex="00CD"/>
  <outline>
    <contour>
      <point x="47" y="750" type="line"/>
      <point x="339" y="800" type="line"/>
      <point x="313" y="910" type="line"/>
      <point x="29" y="831" type="line"/>
    </contour>
    <component base="I"/>
  </outline>
</glyph>
<glyph name="Idieresis" format="2">
  <advance width="324"/>
  <unicode hex="00CF"/>
  <outline>
    <contour>
      <point x="-19" y="766" type="line"/>
      <point x="124" y="766" type="line"/>
      <point x="124" y="874" type="line"/>
      <point x="-19" y="874" type="line"/>
    </contour>
    <contour>
      <point x="200" y="766" type="line"/>
      <point x="343" y="766" type="line"/>
      <point x="343" y="874" type="line"/>
      <point x="200" y="874" type="line"/>
    </contour>
    <component base="I"/>
  </outline>
</glyph>
<glyph name="Eth" format="2">
  <advance width="686"/>
  <unicode hex="00D0"/>
  <outline>
    <contour>
      <point x="30" y="301" type="line"/>
      <point x="374" y="301" type="line"/>
      <point x="374" y="413" type="line"/>
      <point x="30" y="413" type="line"/>
    </contour>
    <component base="D" xOffset="13"/>
  </outline>
</glyph>
<glyph name="Oslash" format="2">
  <advance width="700"/>
  <unicode hex="00D8"/>
  <outline>
    <contour>
      <point x="104" y="-39" type="line"/>
      <point x="221" y="-39" type="line"/>
      <point x="388" y="328" type="line"/>
      <point x="579" y="729" type="line"/>
      <point x="463" y="729" type="line"/>
      <point x="297" y="359" type="line"/>
    </contour>
    <component base="O"/>
  </outline>
</glyph>
<glyph name="germandbls" format="2">
  <advance width="671"/>
  <unicode hex="00DF"/>
  <outline>
    <contour>
      <point x="385" y="-13" type="curve" smooth="yes"/>
      <point x="487" y="-13"/>
      <point x="609" y="37"/>
      <point x="609" y="203" type="curve" smooth="yes"/>
      <point x="609" y="298"/>
      <point x="562" y="343"/>
      <point x="498" y="367" type="curve"/>
      <point x="498" y="373" type="line"/>
      <point x="536" y="392"/>
      <point x="579" y="442"/>
      <point x="579" y="514" type="curve" smooth="yes"/>
      <point x="579" y="657"/>
      <point x="453" y="716"/>
      <point x="331" y="716" type="curve" smooth="yes"/>
      <point x="207" y="716"/>
      <point x="83" y="645"/>
      <point x="83" y="455" type="curve" smooth="yes"/>
      <point x="83" y="0" type="line"/>
      <point x="239" y="0" type="line"/>
      <point x="239" y="467" type="line" smooth="yes"/>
      <point x="239" y="562"/>
      <point x="276" y="593"/>
      <point x="331" y="593" type="curve" smooth="yes"/>
      <point x="398" y="593"/>
      <point x="429" y="559"/>
      <point x="429" y="509" type="curve" smooth="yes"/>
      <point x="429" y="450"/>
      <point x="412" y="428"/>
      <point x="329" y="422" type="curve"/>
      <point x="329" y="304" type="line"/>
      <point x="349" y="304" type="line" smooth="yes"/>
      <point x="409" y="304"/>
      <point x="446" y="282"/>
      <point x="446" y="212" type="curve" smooth="yes"/>
      <point x="446" y="143"/>
      <point x="427" y="113"/>
      <point x="370" y="113" type="curve" smooth="yes"/>
      <point x="343" y="113"/>
      <point x="323" y="114"/>
      <point x="323" y="114" type="curve"/>
      <point x="310" y="-7" type="line"/>
      <point x="310" y="-7"/>
      <point x="344" y="-13"/>
    </contour>
  </outline>
</glyph>
<glyph name="iacute" format="2">
  <advance width="323"/>
  <unicode hex="00ED"/>
  <outline>
    <contour>
      <point x="44" y="646" type="line"/>
      <point x="326" y="704" type="line"/>
      <point x="295" y="816" type="line"/>
      <point x="22" y="728" type="line"/>
    </contour>
    <component base="dotlessi"/>
  </outline>
</glyph>
<glyph name="icircumflex" format="2">
  <advance width="323"/>
  <unicode hex="00EE"/>
  <outline>
    <contour>
      <point x="12" y="640" type="line"/>
      <point x="159" y="701" type="line"/>
      <point x="166" y="701" type="line"/>
      <point x="313" y="640" type="line"/>
      <point x="346" y="702" type="line"/>
      <point x="199" y="803" type="line"/>
      <point x="126" y="803" type="line"/>
      <point x="-21" y="702" type="line"/>
    </contour>
    <component base="dotlessi"/>
  </outline>
</glyph>
<glyph name="oslash" format="2">
  <advance width="612"/>
  <unicode hex="00F8"/>
  <outline>
    <contour>
      <point x="101" y="-39" type="line"/>
      <point x="206" y="-39" type="line"/>
      <point x="222" y="-3" type="line"/>
      <point x="481" y="548" type="line"/>
      <point x="520" y="628" type="line"/>
      <point x="416" y="628" type="line"/>
      <point x="399" y="590" type="line"/>
      <point x="137" y="36" type="line"/>
    </contour>
    <component base="o"/>
  </outline>
</glyph>
<glyph name="thorn" format="2">
  <advance width="629"/>
  <unicode hex="00FE"/>
  <outline>
    <contour>
      <point x="79" y="-166" type="line"/>
      <point x="234" y="-166" type="line"/>
      <point x="234" y="-3" type="line"/>
      <point x="274" y="-9"/>
      <point x="311" y="-13"/>
      <point x="337" y="-13" type="curve" smooth="yes"/>
      <point x="458" y="-13"/>
      <point x="581" y="44"/>
      <point x="581" y="303" type="curve" smooth="yes"/>
      <point x="581" y="512"/>
      <point x="501" y="601"/>
      <point x="357" y="601" type="curve" smooth="yes"/>
      <point x="311" y="601"/>
      <point x="234" y="586"/>
      <point x="234" y="586" type="curve"/>
      <point x="234" y="761" type="line"/>
      <point x="79" y="761" type="line"/>
    </contour>
    <contour>
      <point x="337" y="112" type="curve" smooth="yes"/>
      <point x="297" y="112"/>
      <point x="258" y="117"/>
      <point x="234" y="122" type="curve"/>
      <point x="234" y="461" type="line"/>
      <point x="234" y="461"/>
      <point x="286" y="474"/>
      <point x="339" y="474" type="curve" smooth="yes"/>
      <point x="368" y="474"/>
      <point x="390" y="469"/>
      <point x="399" y="461" type="curve" smooth="yes"/>
      <point x="414" y="447"/>
      <point x="421" y="405"/>
      <point x="421" y="315" type="curve" smooth="yes"/>
      <point x="421" y="172"/>
      <point x="403" y="138"/>
      <point x="386" y="124" type="curve" smooth="yes"/>
      <point x="378" y="117"/>
      <point x="362" y="112"/>
    </contour>
  </outline>
</glyph>
<glyph name="itilde" format="2">
  <advance width="311"/>
  <unicode hex="0129"/>
  <outline>
    <contour>
      <point x="245" y="656" type="curve" smooth="yes"/>
      <point x="301" y="656"/>
      <point x="338" y="692"/>
      <point x="340" y="783" type="curve"/>
      <point x="265" y="795" type="line"/>
      <point x="265" y="795"/>
      <point x="250" y="755"/>
      <point x="234" y="755" type="curve" smooth="yes"/>
      <point x="206" y="755"/>
      <point x="130" y="798"/>
      <point x="80" y="798" type="curve" smooth="yes"/>
      <point x="24" y="798"/>
      <point x="-15" y="762"/>
      <point x="-17" y="670" type="curve"/>
      <point x="59" y="660" type="line"/>
      <point x="59" y="660"/>
      <point x="75" y="701"/>
      <point x="91" y="701" type="curve" smooth="yes"/>
      <point x="118" y="701"/>
      <point x="196" y="656"/>
    </contour>
    <component base="dotlessi"/>
  </outline>
</glyph>
<glyph name="Imacron" format="2">
  <advance width="324"/>
  <unicode hex="012A"/>
  <outline>
    <contour>
      <point x="-16" y="775" type="line"/>
      <point x="340" y="775" type="line"/>
      <point x="340" y="871" type="line"/>
      <point x="-16" y="871" type="line"/>
    </contour>
    <component base="I"/>
  </outline>
</glyph>
<glyph name="jcircumflex" format="2">
  <advance width="346"/>
  <unicode hex="0135"/>
  <outline>
    <contour>
      <point x="39" y="644" type="line"/>
      <point x="186" y="705" type="line"/>
      <point x="193" y="705" type="line"/>
      <point x="340" y="644" type="line"/>
      <point x="373" y="706" type="line"/>
      <point x="226" y="807" type="line"/>
      <point x="153" y="807" type="line"/>
      <point x="6" y="706" type="line"/>
    </contour>
    <component base="dotlessj" xOffset="12"/>
  </outline>
</glyph>
<glyph name="OE" format="2">
  <advance width="970"/>
  <unicode hex="0152"/>
  <outline>
    <contour>
      <point x="350" y="-13" type="curve" smooth="yes"/>
      <point x="401" y="-13"/>
      <point x="456" y="2"/>
      <point x="498" y="25" type="curve"/>
      <point x="572" y="25" type="line"/>
      <point x="502" y="95" type="line"/>
      <point x="502" y="0" type="line"/>
      <point x="924" y="0" type="line"/>
      <point x="924" y="134" type="line"/>
      <point x="658" y="132" type="line"/>
      <point x="654" y="290" type="line"/>
      <point x="899" y="290" type="line"/>
      <point x="899" y="422" type="line"/>
      <point x="654" y="422" type="line"/>
      <point x="658" y="570" type="line"/>
      <point x="924" y="567" type="line"/>
      <point x="924" y="703" type="line"/>
      <point x="502" y="703" type="line"/>
      <point x="502" y="609" type="line"/>
      <point x="572" y="679" type="line"/>
      <point x="498" y="679" type="line"/>
      <point x="456" y="702"/>
      <point x="400" y="716"/>
      <point x="350" y="716" type="curve" smooth="yes"/>
      <point x="186" y="716"/>
      <point x="50" y="648"/>
      <point x="50" y="353" type="curve" smooth="yes"/>
      <point x="50" y="57"/>
      <point x="186" y="-13"/>
    </contour>
    <contour>
      <point x="350" y="125" type="curve" smooth="yes"/>
      <point x="255" y="125"/>
      <point x="213" y="157"/>
      <point x="213" y="351" type="curve" smooth="yes"/>
      <point x="213" y="545"/>
      <point x="253" y="578"/>
      <point x="350" y="578" type="curve" smooth="yes"/>
      <point x="447" y="578"/>
      <point x="487" y="545"/>
      <point x="487" y="351" type="curve" smooth="yes"/>
      <point x="487" y="158"/>
      <point x="445" y="125"/>
    </contour>
  </outline>
</glyph>
<glyph name="Tbar" format="2">
  <advance width="516"/>
  <unicode hex="0166"/>
  <outline>
    <contour>
      <point x="470" y="424" type="line"/>
      <point x="43" y="424" type="line"/>
      <point x="43" y="325" type="line"/>
      <point x="470" y="325" type="line"/>
    </contour>
    <component base="T"/>
  </outline>
</glyph>
<glyph name="icaron" format="2">
  <advance width="311"/>
  <unicode hex="01D0"/>
  <outline>
    <contour>
      <point x="119" y="657" type="line"/>
      <point x="192" y="657" type="line"/>
      <point x="329" y="762" type="line"/>
      <point x="296" y="823" type="line"/>
      <point x="159" y="759" type="line"/>
      <point x="152" y="759" type="line"/>
      <point x="15" y="823" type="line"/>
      <point x="-18" y="762" type="line"/>
    </contour>
    <component base="dotlessi"/>
  </outline>
</glyph>
<glyph name="circumflex" format="2">
  <advance width="407"/>
  <unicode hex="02C6"/>
  <outline>
    <contour>
      <point x="33" y="637" type="line"/>
      <point x="200" y="701" type="line"/>
      <point x="207" y="701" type="line"/>
      <point x="374" y="637" type="line"/>
      <point x="407" y="698" type="line"/>
      <point x="240" y="803" type="line"/>
      <point x="167" y="803" type="line"/>
      <point x="0" y="698" type="line"/>
    </contour>
  </outline>
</glyph>
<glyph name="dotaccent" format="2">
  <advance width="163"/>
  <unicode hex="02D9"/>
  <outline>
    <contour>
      <point x="0" y="668" type="line"/>
      <point x="163" y="668" type="line"/>
      <point x="163" y="776" type="line"/>
      <point x="0" y="776" type="line"/>
    </contour>
  </outline>
</glyph>
<glyph name="horncomb" format="2">
  <unicode hex="031B"/>
  <outline>
    <contour>
      <point x="-30" y="550" type="line"/>
      <point x="-17" y="462" type="line"/>
      <point x="46" y="462" type="line" smooth="yes"/>
      <point x="130" y="462"/>
      <point x="203" y="505"/>
      <point x="203" y="609" type="curve" smooth="yes"/>
      <point x="203" y="627"/>
      <point x="197" y="655"/>
      <point x="188" y="688" type="curve"/>
      <point x="65" y="688" type="line"/>
      <point x="79" y="622"/>
      <point x="83" y="601"/>
      <point x="83" y="581" type="curve" smooth="yes"/>
      <point x="83" y="556"/>
      <point x="78" y="550"/>
      <point x="56" y="550" type="curve" smooth="yes"/>
    </contour>
  </outline>
</glyph>
<glyph name="Lje-cy" format="2">
  <advance width="999"/>
  <unicode hex="0409"/>
  <outline>
    <contour>
      <point x="27" y="-14" type="curve"/>
      <point x="5" y="91" type="line"/>
      <point x="29" y="94"/>
      <point x="43" y="97"/>
      <point x="54" y="101" type="curve" smooth="yes"/>
      <point x="93" y="115"/>
      <point x="111" y="136"/>
      <point x="118" y="241" type="curve" smooth="yes"/>
      <point x="150" y="703" type="line"/>
      <point x="299" y="703" type="line"/>
      <point x="265" y="209" type="line" smooth="yes"/>
      <point x="258" y="113"/>
      <point x="238.54545454545456" y="56.63636363636364"/>
      <point x="180" y="19" type="curve" smooth="yes"/>
      <point x="155" y="4"/>
      <point x="104" y="-11"/>
    </contour>
    <contour>
      <point x="447" y="0" type="curve"/>
      <point x="450" y="362" type="line"/>
      <point x="447" y="703" type="line"/>
      <point x="599" y="703" type="line"/>
      <point x="599" y="414" type="line"/>
      <point x="562" y="455" type="line"/>
      <point x="588" y="456"/>
      <point x="625" y="462"/>
      <point x="666" y="462" type="curve" smooth="yes"/>
      <point x="852" y="462"/>
      <point x="951" y="414"/>
      <point x="951" y="221" type="curve" smooth="yes"/>
      <point x="951" y="65"/>
      <point x="883" y="-13"/>
      <point x="664" y="-13" type="curve" smooth="yes"/>
      <point x="592" y="-13"/>
      <point x="461" y="-2"/>
    </contour>
    <contour>
      <point x="670" y="332" type="curve" smooth="yes"/>
      <point x="634" y="332"/>
      <point x="589" y="327"/>
      <point x="554" y="325" type="curve"/>
      <point x="598" y="365" type="line"/>
      <point x="603" y="57" type="line"/>
      <point x="563" y="129" type="line"/>
      <point x="589" y="128"/>
      <point x="626" y="125"/>
      <point x="663" y="125" type="curve" smooth="yes"/>
      <point x="722" y="125"/>
      <point x="748" y="129"/>
      <point x="761" y="138" type="curve" smooth="yes"/>
      <point x="775" y="148"/>
      <point x="788" y="177"/>
      <point x="788" y="226" type="curve" smooth="yes"/>
      <point x="788" y="258"/>
      <point x="787" y="292"/>
      <point x="768" y="310" type="curve" smooth="yes"/>
      <point x="747" y="330"/>
      <point x="726" y="332"/>
    </contour>
    <contour>
      <point x="253" y="569" type="line"/>
      <point x="253" y="703" type="line"/>
      <point x="569" y="703" type="line"/>
      <point x="476" y="571" type="line"/>
    </contour>
  </outline>
</glyph>
<glyph name="Nje-cy" format="2">
  <advance width="992"/>
  <unicode hex="040A"/>
  <outline>
    <contour>
      <point x="83" y="0" type="line"/>
      <point x="83" y="703" type="line"/>
      <point x="240" y="703" type="line"/>
      <point x="236" y="388" type="line"/>
      <point x="167" y="438" type="line"/>
      <point x="503" y="438" type="line"/>
      <point x="503" y="304" type="line"/>
      <point x="167" y="304" type="line"/>
      <point x="236" y="354" type="line"/>
      <point x="240" y="0" type="line"/>
    </contour>
    <component base="Softsign-cy" xOffset="357"/>
  </outline>
</glyph>
<glyph name="Ge-cy" format="2">
  <advance width="505"/>
  <unicode hex="0413"/>
  <outline>
    <contour>
      <point x="83" y="0" type="line"/>
      <point x="83" y="703" type="line"/>
      <point x="505" y="703" type="line"/>
      <point x="505" y="569" type="line"/>
      <point x="165" y="573" type="line"/>
      <point x="235" y="642" type="line"/>
      <point x="240" y="0" type="line"/>
    </contour>
  </outline>
</glyph>
<glyph name="De-cy" format="2">
  <advance width="720"/>
  <unicode hex="0414"/>
  <outline>
    <contour>
      <point x="5" y="-127" type="line"/>
      <point x="152" y="-127" type="line"/>
      <point x="152" y="0" type="line"/>
      <point x="540" y="0" type="line"/>
      <point x="540" y="-127" type="line"/>
      <point x="687" y="-127" type="line"/>
      <point x="687" y="134" type="line"/>
      <point x="613" y="134" type="line"/>
      <point x="613" y="703" type="line"/>
      <point x="150" y="703" type="line"/>
      <point x="119" y="284" type="line" smooth="yes"/>
      <point x="111" y="179"/>
      <point x="98" y="156"/>
      <point x="59" y="142" type="curve" smooth="yes"/>
      <point x="48" y="138"/>
      <point x="29" y="135"/>
      <point x="5" y="134" type="curve"/>
    </contour>
    <contour>
      <point x="266" y="252" type="curve" smooth="yes"/>
      <point x="289" y="568" type="line"/>
      <point x="461" y="570" type="line"/>
      <point x="461" y="346" type="line"/>
      <point x="458" y="134" type="line"/>
      <point x="238" y="134" type="line"/>
      <point x="254" y="168"/>
      <point x="263" y="210"/>
    </contour>
  </outline>
</glyph>
<glyph name="Zhe-cy" format="2">
  <advance width="1012"/>
  <unicode hex="0416"/>
  <outline>
    <contour>
      <point x="1" y="0" type="line"/>
      <point x="185" y="0" type="line"/>
      <point x="426" y="369" type="line"/>
      <point x="204" y="703" type="line"/>
      <point x="22" y="703" type="line"/>
      <point x="305" y="319" type="line"/>
      <point x="263" y="444" type="line"/>
      <point x="263" y="298" type="line"/>
      <point x="305" y="423" type="line"/>
    </contour>
    <contour>
      <point x="426" y="0" type="line"/>
      <point x="584" y="0" type="line"/>
      <point x="581" y="390" type="line"/>
      <point x="584" y="703" type="line"/>
      <point x="426" y="703" type="line"/>
      <point x="430" y="324" type="line"/>
    </contour>
    <contour>
      <point x="1010" y="0" type="line"/>
      <point x="706" y="423" type="line"/>
      <point x="748" y="298" type="line"/>
      <point x="748" y="444" type="line"/>
      <point x="706" y="319" type="line"/>
      <point x="989" y="703" type="line"/>
      <point x="807" y="703" type="line"/>
      <point x="585" y="369" type="line"/>
      <point x="826" y="0" type="line"/>
    </contour>
  </outline>
</glyph>
<glyph name="Ze-cy" format="2">
  <advance width="632"/>
  <unicode hex="0417"/>
  <outline>
    <contour>
      <point x="308" y="-13" type="curve" smooth="yes"/>
      <point x="503" y="-13"/>
      <point x="570" y="88"/>
      <point x="570" y="208" type="curve" smooth="yes"/>
      <point x="570" y="294"/>
      <point x="524" y="340"/>
      <point x="473" y="364" type="curve"/>
      <point x="473" y="370" type="line"/>
      <point x="511" y="393"/>
      <point x="548" y="434"/>
      <point x="548" y="526" type="curve" smooth="yes"/>
      <point x="548" y="672"/>
      <point x="438" y="717"/>
      <point x="282" y="717" type="curve" smooth="yes"/>
      <point x="216" y="717"/>
      <point x="127" y="707"/>
      <point x="72" y="692" type="curve"/>
      <point x="91" y="560" type="line"/>
      <point x="161" y="576"/>
      <point x="226" y="579"/>
      <point x="275" y="579" type="curve" smooth="yes"/>
      <point x="322" y="579"/>
      <point x="354" y="575"/>
      <point x="366" y="564" type="curve" smooth="yes"/>
      <point x="374" y="557"/>
      <point x="379" y="542"/>
      <point x="379" y="503" type="curve" smooth="yes"/>
      <point x="379" y="443"/>
      <point x="358" y="424"/>
      <point x="292" y="424" type="curve" smooth="yes"/>
      <point x="131" y="423" type="line"/>
      <point x="131" y="293" type="line"/>
      <point x="292" y="292" type="line" smooth="yes"/>
      <point x="372" y="292"/>
      <point x="397" y="268"/>
      <point x="397" y="201" type="curve" smooth="yes"/>
      <point x="397" y="149"/>
      <point x="380" y="125"/>
      <point x="308" y="125" type="curve" smooth="yes"/>
      <point x="244" y="125"/>
      <point x="105" y="172"/>
      <point x="105" y="172" type="curve"/>
      <point x="56" y="56" type="line"/>
      <point x="56" y="56"/>
      <point x="183" y="-13"/>
    </contour>
  </outline>
</glyph>
<glyph name="Ii-cy" format="2">
  <advance width="718"/>
  <unicode hex="0418"/>
  <outline>
    <contour>
      <point x="83" y="0" type="line"/>
      <point x="274" y="0" type="line"/>
      <point x="503" y="525" type="line"/>
      <point x="498" y="302" type="line"/>
      <point x="492" y="0" type="line"/>
      <point x="635" y="0" type="line"/>
      <point x="635" y="703" type="line"/>
      <point x="443" y="703" type="line"/>
      <point x="215" y="177" type="line"/>
      <point x="219" y="375" type="line"/>
      <point x="226" y="703" type="line"/>
      <point x="83" y="703" type="line"/>
    </contour>
  </outline>
</glyph>
<glyph name="Pe-cy" format="2">
  <advance width="681"/>
  <unicode hex="041F"/>
  <outline>
    <contour>
      <point x="83" y="0" type="line"/>
      <point x="240" y="0" type="line"/>
      <point x="235" y="345" type="line"/>
      <point x="235" y="569" type="line"/>
      <point x="446" y="569" type="line"/>
      <point x="446" y="345" type="line"/>
      <point x="441" y="0" type="line"/>
      <point x="598" y="0" type="line"/>
      <point x="598" y="703" type="line"/>
      <point x="83" y="703" type="line"/>
    </contour>
  </outline>
</glyph>
<glyph name="U-cy" format="2">
  <advance width="651"/>
  <unicode hex="0423"/>
  <outline>
    <contour>
      <point x="253" y="-14" type="curve" smooth="yes"/>
      <point x="297" y="-14"/>
      <point x="331" y="-8"/>
      <point x="358" y="11" type="curve" smooth="yes"/>
      <point x="399" y="38"/>
      <point x="423" y="94"/>
      <point x="455" y="195" type="curve" smooth="yes"/>
      <point x="619" y="703" type="line"/>
      <point x="458" y="703" type="line"/>
      <point x="349" y="242" type="line"/>
      <point x="341" y="242" type="line"/>
      <point x="214" y="703" type="line"/>
      <point x="55" y="703" type="line"/>
      <point x="261" y="119" type="line"/>
      <point x="258" y="119"/>
      <point x="256" y="119"/>
      <point x="253" y="119" type="curve" smooth="yes"/>
      <point x="215" y="119"/>
      <point x="152" y="133"/>
      <point x="99" y="150" type="curve"/>
      <point x="58" y="30" type="line"/>
      <point x="121" y="0"/>
      <point x="196" y="-14"/>
    </contour>
  </outline>
</glyph>
<glyph name="Shcha-cy" format="2">
  <advance width="1035"/>
  <unicode hex="0429"/>
  <outline>
    <contour>
      <point x="83" y="0" type="line"/>
      <point x="948" y="0" type="line"/>
      <point x="948" y="703" type="line"/>
      <point x="791" y="703" type="line"/>
      <point x="796" y="358" type="line"/>
      <point x="796" y="64" type="line"/>
      <point x="866" y="134" type="line"/>
      <point x="522" y="134" type="line"/>
      <point x="593" y="64" type="line"/>
      <point x="589" y="358" type="line"/>
      <point x="594" y="703" type="line"/>
      <point x="437" y="703" type="line"/>
      <point x="442" y="358" type="line"/>
      <point x="438" y="64" type="line"/>
      <point x="509" y="134" type="line"/>
      <point x="165" y="134" type="line"/>
      <point x="235" y="64" type="line"/>
      <point x="235" y="358" type="line"/>
      <point x="240" y="703" type="line"/>
      <point x="83" y="703" type="line"/>
    </contour>
    <contour>
      <point x="855" y="80" type="line"/>
      <point x="867" y="-166" type="line"/>
      <point x="1015" y="-166" type="line"/>
      <point x="1015" y="82" type="line"/>
    </contour>
  </outline>
</glyph>
<glyph name="Softsign-cy" format="2">
  <advance width="623"/>
  <unicode hex="042C"/>
  <outline>
    <contour>
      <point x="83" y="0" type="curve"/>
      <point x="86" y="362" type="line"/>
      <point x="83" y="703" type="line"/>
      <point x="235" y="703" type="line"/>
      <point x="235" y="414" type="line"/>
      <point x="198" y="455" type="line"/>
      <point x="224" y="456"/>
      <point x="261" y="462"/>
      <point x="302" y="462" type="curve" smooth="yes"/>
      <point x="488" y="462"/>
      <point x="587" y="414"/>
      <point x="587" y="221" type="curve" smooth="yes"/>
      <point x="587" y="65"/>
      <point x="519" y="-13"/>
      <point x="300" y="-13" type="curve" smooth="yes"/>
      <point x="228" y="-13"/>
      <point x="97" y="-2"/>
    </contour>
    <contour>
      <point x="306" y="332" type="curve" smooth="yes"/>
      <point x="270" y="332"/>
      <point x="225" y="327"/>
      <point x="190" y="325" type="curve"/>
      <point x="234" y="365" type="line"/>
      <point x="239" y="57" type="line"/>
      <point x="199" y="129" type="line"/>
      <point x="225" y="128"/>
      <point x="262" y="125"/>
      <point x="299" y="125" type="curve" smooth="yes"/>
      <point x="358" y="125"/>
      <point x="384" y="129"/>
      <point x="397" y="138" type="curve" smooth="yes"/>
      <point x="411" y="148"/>
      <point x="424" y="177"/>
      <point x="424" y="226" type="curve" smooth="yes"/>
      <point x="424" y="258"/>
      <point x="423" y="292"/>
      <point x="404" y="310" type="curve" smooth="yes"/>
      <point x="383" y="330"/>
      <point x="362" y="332"/>
    </contour>
  </outline>
</glyph>
<glyph name="Iu-cy" format="2">
  <advance width="931"/>
  <unicode hex="042E"/>
  <outline>
    <contour>
      <point x="83" y="0" type="line"/>
      <point x="240" y="0" type="line"/>
      <point x="236" y="340" type="line"/>
      <point x="167" y="290" type="line"/>
      <point x="378" y="290" type="line"/>
      <point x="378" y="424" type="line"/>
      <point x="167" y="424" type="line"/>
      <point x="236" y="374" type="line"/>
      <point x="240" y="703" type="line"/>
      <point x="83" y="703" type="line"/>
    </contour>
    <contour>
      <point x="626" y="-13" type="curve" smooth="yes"/>
      <point x="755" y="-13"/>
      <point x="891" y="57"/>
      <point x="891" y="353" type="curve" smooth="yes"/>
      <point x="891" y="648"/>
      <point x="755" y="716"/>
      <point x="626" y="716" type="curve" smooth="yes"/>
      <point x="498" y="716"/>
      <point x="362" y="648"/>
      <point x="362" y="353" type="curve" smooth="yes"/>
      <point x="362" y="57"/>
      <point x="498" y="-13"/>
    </contour>
    <contour>
      <point x="626" y="125" type="curve" smooth="yes"/>
      <point x="567" y="125"/>
      <point x="525" y="157"/>
      <point x="525" y="351" type="curve" smooth="yes"/>
      <point x="525" y="545"/>
      <point x="565" y="578"/>
      <point x="626" y="578" type="curve" smooth="yes"/>
      <point x="688" y="578"/>
      <point x="728" y="545"/>
      <point x="728" y="351" type="curve" smooth="yes"/>
      <point x="728" y="158"/>
      <point x="686" y="125"/>
    </contour>
  </outline>
</glyph>
<glyph name="be-cy" format="2">
  <advance width="612"/>
  <unicode hex="0431"/>
  <outline>
    <contour>
      <point x="307" y="-13" type="curve" smooth="yes"/>
      <point x="502" y="-13"/>
      <point x="564" y="105"/>
      <point x="564" y="250" type="curve" smooth="yes"/>
      <point x="564" y="395"/>
      <point x="502" y="513"/>
      <point x="310" y="513" type="curve" smooth="yes"/>
      <point x="246" y="513"/>
      <point x="189" y="494"/>
      <point x="152" y="432" type="curve"/>
      <point x="189" y="445" type="line"/>
      <point x="189" y="490"/>
      <point x="196" y="588"/>
      <point x="228" y="624" type="curve" smooth="yes"/>
      <point x="249" y="647"/>
      <point x="285" y="650"/>
      <point x="359" y="650" type="curve" smooth="yes"/>
      <point x="438" y="650"/>
      <point x="475" y="651"/>
      <point x="497" y="655" type="curve"/>
      <point x="514" y="761" type="line"/>
      <point x="468" y="758"/>
      <point x="432" y="758"/>
      <point x="308" y="761" type="curve" smooth="yes"/>
      <point x="114" y="766"/>
      <point x="48" y="649"/>
      <point x="48" y="316" type="curve" smooth="yes"/>
      <point x="48" y="88"/>
      <point x="119" y="-13"/>
    </contour>
    <contour>
      <point x="307" y="105" type="curve" smooth="yes"/>
      <point x="229" y="105"/>
      <point x="206" y="141"/>
      <point x="206" y="250" type="curve" smooth="yes"/>
      <point x="206" y="360"/>
      <point x="230" y="395"/>
      <point x="307" y="395" type="curve" smooth="yes"/>
      <point x="383" y="395"/>
      <point x="406" y="360"/>
      <point x="406" y="250" type="curve" smooth="yes"/>
      <point x="406" y="141"/>
      <point x="384" y="105"/>
    </contour>
  </outline>
</glyph>
<glyph name="de-cy" format="2">
  <advance width="751"/>
  <unicode hex="0434"/>
  <outline>
    <contour>
      <point x="30" y="-127" type="line"/>
      <point x="177" y="-127" type="line"/>
      <point x="177" y="-12" type="line"/>
      <point x="564" y="-12" type="line"/>
      <point x="564" y="-127" type="line"/>
      <point x="711" y="-127" type="line"/>
      <point x="711" y="116" type="line"/>
      <point x="628" y="116" type="line"/>
      <point x="628" y="588" type="line"/>
      <point x="177" y="588" type="line"/>
      <point x="145" y="228" type="line" smooth="yes"/>
      <point x="140" y="171"/>
      <point x="138" y="144"/>
      <point x="106" y="129" type="curve" smooth="yes"/>
      <point x="88" y="120"/>
      <point x="69.02379604162864" y="116.0"/>
      <point x="30" y="116" type="curve"/>
    </contour>
    <contour>
      <point x="297" y="174" type="curve" smooth="yes"/>
      <point x="319" y="460" type="line"/>
      <point x="473" y="460" type="line"/>
      <point x="474" y="292" type="line"/>
      <point x="473" y="116" type="line"/>
      <point x="287" y="116" type="line"/>
      <point x="292" y="134"/>
      <point x="295" y="153"/>
    </contour>
  </outline>
</glyph>
<glyph name="ze-cy" format="2">
  <advance width="559"/>
  <unicode hex="0437"/>
  <outline>
    <contour>
      <point x="318" y="-15" type="curve" smooth="yes"/>
      <point x="450" y="-15"/>
      <point x="503" y="74"/>
      <point x="503" y="162" type="curve" smooth="yes"/>
      <point x="503" y="252"/>
      <point x="458" y="289"/>
      <point x="425" y="304" type="curve"/>
      <point x="425" y="312" type="line"/>
      <point x="455" y="331"/>
      <point x="485" y="362"/>
      <point x="485" y="436" type="curve" smooth="yes"/>
      <point x="485" y="557"/>
      <point x="403" y="603"/>
      <point x="252" y="603" type="curve" smooth="yes"/>
      <point x="186" y="603"/>
      <point x="118" y="593"/>
      <point x="66" y="584" type="curve"/>
      <point x="86" y="457" type="line"/>
      <point x="130" y="463"/>
      <point x="181" y="469"/>
      <point x="216" y="469" type="curve" smooth="yes"/>
      <point x="256" y="469"/>
      <point x="305" y="467"/>
      <point x="314" y="462" type="curve" smooth="yes"/>
      <point x="324" y="456"/>
      <point x="332" y="446"/>
      <point x="332" y="414" type="curve" smooth="yes"/>
      <point x="332" y="362"/>
      <point x="321" y="349"/>
      <point x="262" y="349" type="curve" smooth="yes"/>
      <point x="125" y="349" type="line"/>
      <point x="125" y="240" type="line"/>
      <point x="258" y="240" type="line" smooth="yes"/>
      <point x="334" y="240"/>
      <point x="344" y="221"/>
      <point x="344" y="183" type="curve" smooth="yes"/>
      <point x="344" y="134"/>
      <point x="335" y="120"/>
      <point x="267" y="120" type="curve" smooth="yes"/>
      <point x="184" y="120"/>
      <point x="86" y="150"/>
      <point x="86" y="150" type="curve"/>
      <point x="47" y="26" type="line"/>
      <point x="47" y="26"/>
      <point x="169" y="-15"/>
    </contour>
  </outline>
</glyph>
<glyph name="el-cy" format="2">
  <advance width="655"/>
  <unicode hex="043B"/>
  <outline>
    <contour>
      <point x="16" y="-7" type="line"/>
      <point x="30" y="-11"/>
      <point x="54" y="-13"/>
      <point x="86" y="-13" type="curve" smooth="yes"/>
      <point x="187" y="-13"/>
      <point x="247" y="51"/>
      <point x="256" y="164" type="curve" smooth="yes"/>
      <point x="278" y="461" type="line"/>
      <point x="426" y="461" type="line"/>
      <point x="427" y="236" type="line"/>
      <point x="426" y="0" type="line"/>
      <point x="581" y="0" type="line"/>
      <point x="581" y="588" type="line"/>
      <point x="137" y="588" type="line"/>
      <point x="105" y="218" type="line" smooth="yes"/>
      <point x="100" y="161"/>
      <point x="98" y="134"/>
      <point x="66" y="119" type="curve" smooth="yes"/>
      <point x="43" y="108"/>
      <point x="17" y="105"/>
      <point x="-10" y="106" type="curve"/>
    </contour>
  </outline>
</glyph>
<glyph name="em-cy" format="2">
  <advance width="843"/>
  <unicode hex="043C"/>
  <outline>
    <contour>
      <point x="69" y="0" type="line"/>
      <point x="225" y="0" type="line"/>
      <point x="219" y="412" type="line"/>
      <point x="235" y="412" type="line"/>
      <point x="353" y="67" type="line"/>
      <point x="491" y="67" type="line"/>
      <point x="606" y="412" type="line"/>
      <point x="622" y="412" type="line"/>
      <point x="618" y="0" type="line"/>
      <point x="774" y="0" type="line"/>
      <point x="747" y="588" type="line"/>
      <point x="537" y="588" type="line"/>
      <point x="424" y="225" type="line"/>
      <point x="418" y="225" type="line"/>
      <point x="304" y="588" type="line"/>
      <point x="93" y="588" type="line"/>
    </contour>
  </outline>
</glyph>
<glyph name="te-cy" format="2">
  <advance width="505"/>
  <unicode hex="0442"/>
  <outline>
    <contour>
      <point x="168" y="0" type="line"/>
      <point x="323" y="0" type="line"/>
      <point x="320" y="462" type="line"/>
      <point x="501" y="459" type="line"/>
      <point x="501" y="588" type="line"/>
      <point x="4" y="588" type="line"/>
      <point x="4" y="459" type="line"/>
      <point x="171" y="462" type="line"/>
    </contour>
  </outline>
</glyph>
<glyph name="shcha-cy" format="2">
  <advance width="989"/>
  <unicode hex="0449"/>
  <outline>
    <contour>
      <point x="83" y="0" type="line"/>
      <point x="238" y="0" type="line"/>
      <point x="238" y="588" type="line"/>
      <point x="83" y="588" type="line"/>
    </contour>
    <contour>
      <point x="117" y="0" type="line"/>
      <point x="532" y="0" type="line"/>
      <point x="532" y="126" type="line"/>
      <point x="116" y="126" type="line"/>
    </contour>
    <contour>
      <point x="417" y="0" type="line"/>
      <point x="572" y="0" type="line"/>
      <point x="572" y="588" type="line"/>
      <point x="417" y="588" type="line"/>
    </contour>
    <contour>
      <point x="451" y="0" type="line"/>
      <point x="866" y="0" type="line"/>
      <point x="866" y="126" type="line"/>
      <point x="451" y="126" type="line"/>
    </contour>
    <contour>
      <point x="751" y="0" type="line"/>
      <point x="906" y="0" type="line"/>
      <point x="906" y="588" type="line"/>
      <point x="751" y="588" type="line"/>
    </contour>
    <contour>
      <point x="839" y="-155" type="line"/>
      <point x="979" y="-155" type="line"/>
      <point x="979" y="74" type="line"/>
      <point x="819" y="74" type="line"/>
    </contour>
  </outline>
</glyph>
<glyph name="hardsign-cy" format="2">
  <advance width="738"/>
  <unicode hex="044A"/>
  <outline>
    <contour>
      <point x="10" y="460" type="line"/>
      <point x="182" y="463" type="line"/>
      <point x="265" y="588" type="line"/>
      <point x="10" y="588" type="line"/>
    </contour>
    <component base="softsign-cy" xOffset="101"/>
  </outline>
</glyph>
<glyph name="iu-cy" format="2">
  <advance width="844"/>
  <unicode hex="044E"/>
  <outline>
    <contour>
      <point x="74" y="0" type="line"/>
      <point x="229" y="0" type="line"/>
      <point x="226" y="241" type="line"/>
      <point x="410" y="241" type="line"/>
      <point x="410" y="369" type="line"/>
      <point x="226" y="369" type="line"/>
      <point x="229" y="588" type="line"/>
      <point x="74" y="588" type="line"/>
    </contour>
    <contour>
      <point x="564" y="-14" type="curve" smooth="yes"/>
      <point x="734" y="-14"/>
      <point x="796" y="105"/>
      <point x="796" y="294" type="curve" smooth="yes"/>
      <point x="796" y="483"/>
      <point x="734" y="602"/>
      <point x="564" y="602" type="curve" smooth="yes"/>
      <point x="394" y="602"/>
      <point x="330" y="483"/>
      <point x="330" y="294" type="curve" smooth="yes"/>
      <point x="330" y="105"/>
      <point x="394" y="-14"/>
    </contour>
    <contour>
      <point x="564" y="105" type="curve" smooth="yes"/>
      <point x="511" y="105"/>
      <point x="488" y="141"/>
      <point x="488" y="294" type="curve" smooth="yes"/>
      <point x="488" y="448"/>
      <point x="512" y="483"/>
      <point x="564" y="483" type="curve" smooth="yes"/>
      <point x="615" y="483"/>
      <point x="638" y="448"/>
      <point x="638" y="294" type="curve" smooth="yes"/>
      <point x="638" y="141"/>
      <point x="616" y="105"/>
    </contour>
  </outline>
</glyph>
<glyph name="ia-cy" format="2">
  <advance width="628"/>
  <unicode hex="044F"/>
  <outline>
    <contour>
      <point x="15" y="0" type="line"/>
      <point x="182" y="0" type="line"/>
      <point x="344" y="276" type="line"/>
      <point x="399" y="259" type="line"/>
      <point x="86" y="259" type="line"/>
      <point x="202" y="300" type="line"/>
    </contour>
    <contour>
      <point x="399" y="0" type="line"/>
      <point x="554" y="0" type="line"/>
      <point x="550" y="276" type="line"/>
      <point x="554" y="590" type="line"/>
      <point x="512" y="596"/>
      <point x="301" y="602"/>
      <point x="248" y="602" type="curve" smooth="yes"/>
      <point x="121" y="602"/>
      <point x="50" y="532"/>
      <point x="50" y="393" type="curve" smooth="yes"/>
      <point x="50" y="219"/>
      <point x="156" y="179"/>
      <point x="262" y="179" type="curve" smooth="yes"/>
      <point x="332" y="179"/>
      <point x="373" y="181"/>
      <point x="399" y="182" type="curve"/>
    </contour>
    <contour>
      <point x="308" y="300" type="curve" smooth="yes"/>
      <point x="273" y="300"/>
      <point x="234" y="306"/>
      <point x="226" y="312" type="curve" smooth="yes"/>
      <point x="212" y="323"/>
      <point x="208" y="352"/>
      <point x="208" y="400" type="curve" smooth="yes"/>
      <point x="208" y="455"/>
      <point x="219" y="464"/>
      <point x="227" y="471" type="curve" smooth="yes"/>
      <point x="234" y="477"/>
      <point x="273" y="482"/>
      <point x="315" y="482" type="curve" smooth="yes"/>
      <point x="341" y="482"/>
      <point x="378" y="481"/>
      <point x="399" y="478" type="curve"/>
      <point x="399" y="306" type="line"/>
      <point x="380" y="302"/>
      <point x="343" y="300"/>
    </contour>
  </outline>
</glyph>
<glyph name="dje-cy" format="2">
  <advance width="636"/>
  <unicode hex="0452"/>
  <outline>
    <contour>
      <point x="392" y="-179" type="curve" smooth="yes"/>
      <point x="515" y="-179"/>
      <point x="578" y="-112"/>
      <point x="578" y="0" type="curve" smooth="yes"/>
      <point x="578" y="57"/>
      <point x="578" y="63"/>
      <point x="578" y="69" type="curve"/>
      <point x="429" y="70" type="line"/>
      <point x="429" y="28" type="line" smooth="yes"/>
      <point x="429.0" y="-38.0"/>
      <point x="423" y="-51"/>
      <point x="377" y="-51" type="curve" smooth="yes"/>
      <point x="358" y="-51"/>
      <point x="338" y="-49"/>
      <point x="290" y="-42" type="curve"/>
      <point x="272" y="-167" type="line"/>
      <point x="306" y="-173"/>
      <point x="344" y="-179"/>
    </contour>
    <component base="hbar" yOffset="1"/>
  </outline>
</glyph>
<glyph name="lje-cy" format="2">
  <advance width="992"/>
  <unicode hex="0459"/>
  <outline>
    <contour>
      <point x="37" y="-7" type="line"/>
      <point x="59" y="-11"/>
      <point x="83" y="-13"/>
      <point x="108" y="-13" type="curve" smooth="yes"/>
      <point x="209" y="-13"/>
      <point x="270" y="51"/>
      <point x="279" y="169" type="curve" smooth="yes"/>
      <point x="301" y="460" type="line"/>
      <point x="363" y="460" type="line"/>
      <point x="429" y="460" type="line"/>
      <point x="430" y="296" type="line"/>
      <point x="429" y="31" type="line"/>
      <point x="504" y="8"/>
      <point x="624" y="-13"/>
      <point x="693" y="-13" type="curve" smooth="yes"/>
      <point x="821" y="-13"/>
      <point x="944" y="46"/>
      <point x="944" y="204" type="curve" smooth="yes"/>
      <point x="944" y="327"/>
      <point x="861" y="415"/>
      <point x="726" y="415" type="curve" smooth="yes"/>
      <point x="657" y="415"/>
      <point x="584" y="400"/>
      <point x="584" y="400" type="curve"/>
      <point x="584" y="588" type="line"/>
      <point x="158" y="588" type="line"/>
      <point x="126" y="223" type="line" smooth="yes"/>
      <point x="121" y="166"/>
      <point x="119" y="139"/>
      <point x="87" y="124" type="curve" smooth="yes"/>
      <point x="64" y="113"/>
      <point x="38" y="110"/>
      <point x="11" y="111" type="curve"/>
    </contour>
    <contour>
      <point x="683" y="124" type="curve" smooth="yes"/>
      <point x="636" y="124"/>
      <point x="584" y="134"/>
      <point x="584" y="134" type="curve"/>
      <point x="584" y="268" type="line"/>
      <point x="584" y="268"/>
      <point x="635" y="281"/>
      <point x="690" y="281" type="curve" smooth="yes"/>
      <point x="736" y="281"/>
      <point x="757" y="274"/>
      <point x="767" y="264" type="curve" smooth="yes"/>
      <point x="783" y="248"/>
      <point x="786" y="221"/>
      <point x="786" y="206" type="curve" smooth="yes"/>
      <point x="786" y="182"/>
      <point x="778" y="151"/>
      <point x="761" y="137" type="curve" smooth="yes"/>
      <point x="750" y="128"/>
      <point x="724" y="124"/>
    </contour>
  </outline>
</glyph>
<glyph name="nje-cy" format="2">
  <advance width="974"/>
  <unicode hex="045A"/>
  <outline>
    <contour>
      <point x="74" y="0" type="line"/>
      <point x="229" y="0" type="line"/>
      <point x="225" y="294" type="line"/>
      <point x="229" y="588" type="line"/>
      <point x="74" y="588" type="line"/>
    </contour>
    <contour>
      <point x="156" y="243" type="line"/>
      <point x="315" y="243" type="line"/>
      <point x="528" y="243" type="line"/>
      <point x="528" y="371" type="line"/>
      <point x="156" y="371" type="line"/>
    </contour>
    <contour>
      <point x="675" y="-13" type="curve" smooth="yes"/>
      <point x="803" y="-13"/>
      <point x="926" y="46"/>
      <point x="926" y="204" type="curve" smooth="yes"/>
      <point x="926" y="327"/>
      <point x="843" y="415"/>
      <point x="708" y="415" type="curve" smooth="yes"/>
      <point x="639" y="415"/>
      <point x="566" y="400"/>
      <point x="566" y="400" type="curve"/>
      <point x="566" y="588" type="line"/>
      <point x="411" y="588" type="line"/>
      <point x="412" y="296" type="line"/>
      <point x="411" y="31" type="line"/>
      <point x="486" y="8"/>
      <point x="606" y="-13"/>
    </contour>
    <contour>
      <point x="665" y="124" type="curve" smooth="yes"/>
      <point x="618" y="124"/>
      <point x="566" y="134"/>
      <point x="566" y="134" type="curve"/>
      <point x="566" y="268" type="line"/>
      <point x="566" y="268"/>
      <point x="617" y="281"/>
      <point x="672" y="281" type="curve" smooth="yes"/>
      <point x="718" y="281"/>
      <point x="739" y="274"/>
      <point x="749" y="264" type="curve" smooth="yes"/>
      <point x="765" y="248"/>
      <point x="768" y="221"/>
      <point x="768" y="206" type="curve" smooth="yes"/>
      <point x="768" y="182"/>
      <point x="760" y="151"/>
      <point x="743" y="137" type="curve" smooth="yes"/>
      <point x="732" y="128"/>
      <point x="706" y="124"/>
    </contour>
  </outline>
</glyph>
<glyph name="Yat-cy" format="2">
  <advance width="704"/>
  <unicode hex="0462"/>
  <outline>
    <contour>
      <point x="494" y="646" type="line"/>
      <point x="494" y="534" type="line"/>
      <point x="249" y="536" type="line"/>
      <point x="46" y="534" type="line"/>
      <point x="46" y="646" type="line"/>
    </contour>
    <component base="Softsign-cy" xOffset="69"/>
  </outline>
</glyph>
<glyph name="Fita-cy" format="2">
  <advance width="700"/>
  <unicode hex="0472"/>
  <outline>
    <contour>
      <point x="450" y="274" type="curve" smooth="yes"/>
      <point x="497" y="274"/>
      <point x="562" y="299"/>
      <point x="564" y="395" type="curve"/>
      <point x="488" y="419" type="line"/>
      <point x="486" y="383"/>
      <point x="472" y="373"/>
      <point x="446" y="373" type="curve" smooth="yes"/>
      <point x="418" y="373"/>
      <point x="300" y="410"/>
      <point x="240" y="410" type="curve" smooth="yes"/>
      <point x="184" y="410"/>
      <point x="156" y="360"/>
      <point x="154" y="284" type="curve"/>
      <point x="213" y="268" type="line"/>
      <point x="216" y="297"/>
      <point x="230" y="312"/>
      <point x="251" y="312" type="curve" smooth="yes"/>
      <point x="283" y="312"/>
      <point x="398" y="274"/>
    </contour>
    <component base="O"/>
  </outline>
</glyph>
<glyph name="fita-cy" format="2">
  <advance width="612"/>
  <unicode hex="0473"/>
  <outline>
    <contour>
      <point x="307" y="-13" type="curve" smooth="yes"/>
      <point x="471" y="-13"/>
      <point x="564" y="61"/>
      <point x="564" y="294" type="curve" smooth="yes"/>
      <point x="564" y="490"/>
      <point x="502" y="601"/>
      <point x="307" y="601" type="curve" smooth="yes"/>
      <point x="141" y="601"/>
      <point x="48" y="527"/>
      <point x="48" y="294" type="curve" smooth="yes"/>
      <point x="48" y="98"/>
      <point x="110" y="-13"/>
    </contour>
    <contour>
      <point x="307" y="105" type="curve" smooth="yes"/>
      <point x="229" y="105"/>
      <point x="206" y="141"/>
      <point x="206" y="294" type="curve" smooth="yes"/>
      <point x="206" y="448"/>
      <point x="230" y="483"/>
      <point x="307" y="483" type="curve" smooth="yes"/>
      <point x="383" y="483"/>
      <point x="406" y="448"/>
      <point x="406" y="294" type="curve" smooth="yes"/>
      <point x="406" y="141"/>
      <point x="384" y="105"/>
    </contour>
    <contour>
      <point x="471" y="345" type="curve"/>
      <point x="415" y="355" type="line"/>
      <point x="404" y="334"/>
      <point x="392" y="322"/>
      <point x="370" y="322" type="curve" smooth="yes"/>
      <point x="338" y="322"/>
      <point x="300" y="358"/>
      <point x="247" y="358" type="curve" smooth="yes"/>
      <point x="191" y="358"/>
      <point x="132" y="322"/>
      <point x="130" y="230" type="curve"/>
      <point x="186" y="220" type="line"/>
      <point x="198" y="241"/>
      <point x="209" y="253"/>
      <point x="236" y="253" type="curve" smooth="yes"/>
      <point x="268" y="253"/>
      <point x="306" y="217"/>
      <point x="354" y="217" type="curve" smooth="yes"/>
      <point x="410" y="217"/>
      <point x="469" y="253"/>
    </contour>
  </outline>
</glyph>
<glyph name="izhitsa-cy" format="2">
  <advance width="583"/>
  <unicode hex="0475"/>
  <outline>
    <contour>
      <point x="572" y="460" type="curve"/>
      <point x="576" y="596" type="line"/>
      <point x="559" y="601"/>
      <point x="538" y="602"/>
      <point x="528" y="602" type="curve" smooth="yes"/>
      <point x="479" y="602"/>
      <point x="441" y="592"/>
      <point x="414" y="568" type="curve" smooth="yes"/>
      <point x="375" y="535"/>
      <point x="353" y="475"/>
      <point x="333" y="396" type="curve" smooth="yes"/>
      <point x="327" y="372"/>
      <point x="322" y="346"/>
      <point x="317" y="321" type="curve"/>
      <point x="451" y="299" type="line"/>
      <point x="463" y="339"/>
      <point x="475" y="380"/>
      <point x="487" y="420" type="curve" smooth="yes"/>
      <point x="496" y="450"/>
      <point x="511" y="461"/>
      <point x="536" y="461" type="curve" smooth="yes"/>
      <point x="548" y="461"/>
      <point x="560" y="460"/>
    </contour>
    <contour>
      <point x="481" y="403" type="line"/>
      <point x="333" y="396" type="line"/>
      <point x="260" y="64" type="line"/>
      <point x="342" y="132" type="line"/>
      <point x="199" y="132" type="line"/>
      <point x="284" y="64" type="line"/>
      <point x="169" y="588" type="line"/>
      <point x="9" y="588" type="line"/>
      <point x="180" y="0" type="line"/>
      <point x="364" y="0" type="line"/>
    </contour>
  </outline>
</glyph>
<glyph name="kadescender-cy" format="2">
  <advance width="637"/>
  <unicode hex="049B"/>
  <outline>
    <contour>
      <point x="539" y="-155" type="line"/>
      <point x="666" y="-155" type="line"/>
      <point x="666" y="74" type="line"/>
      <point x="519" y="74" type="line"/>
    </contour>
    <component base="ka-cy"/>
  </outline>
</glyph>
<glyph name="Endescender-cy" format="2">
  <advance width="720"/>
  <unicode hex="04A2"/>
  <outline>
    <contour>
      <point x="532" y="-166" type="line"/>
      <point x="680" y="-166" type="line"/>
      <point x="680" y="82" type="line"/>
      <point x="520" y="80" type="line"/>
    </contour>
    <component base="En-cy"/>
  </outline>
</glyph>
<glyph name="ustrait-cy" format="2">
  <advance width="540"/>
  <unicode hex="04AF"/>
  <outline>
    <contour>
      <point x="184" y="-166" type="line"/>
      <point x="345" y="-166" type="line"/>
      <point x="345" y="98" type="line"/>
      <point x="317" y="-34" type="line"/>
      <point x="541" y="588" type="line"/>
      <point x="382" y="588" type="line"/>
      <point x="259" y="128" type="line"/>
      <point x="347" y="195" type="line"/>
      <point x="201" y="195" type="line"/>
      <point x="289" y="128" type="line"/>
      <point x="168" y="588" type="line"/>
      <point x="-4" y="588" type="line"/>
      <point x="209" y="-34" type="line"/>
      <point x="184" y="98" type="line"/>
    </contour>
  </outline>
</glyph>
<glyph name="ustraitstroke-cy" format="2">
  <advance width="540"/>
  <unicode hex="04B1"/>
  <outline>
    <contour>
      <point x="184" y="-166" type="line"/>
      <point x="345" y="-166" type="line"/>
      <point x="339" y="98" type="line"/>
      <point x="317" y="-34" type="line"/>
      <point x="541" y="588" type="line"/>
      <point x="382" y="588" type="line"/>
      <point x="259" y="128" type="line"/>
      <point x="347" y="195" type="line"/>
      <point x="201" y="195" type="line"/>
      <point x="289" y="128" type="line"/>
      <point x="168" y="588" type="line"/>
      <point x="-4" y="588" type="line"/>
      <point x="209" y="-34" type="line"/>
      <point x="190" y="98" type="line"/>
    </contour>
    <contour>
      <point x="9" y="25" type="line"/>
      <point x="245" y="26" type="line"/>
      <point x="519" y="25" type="line"/>
      <point x="519" y="141" type="line"/>
      <point x="9" y="141" type="line"/>
    </contour>
  </outline>
</glyph>
<glyph name="chedescender-cy" format="2">
  <advance width="662"/>
  <unicode hex="04B7"/>
  <outline>
    <contour>
      <point x="530" y="-155" type="line"/>
      <point x="657" y="-155" type="line"/>
      <point x="657" y="74" type="line"/>
      <point x="510" y="74" type="line"/>
    </contour>
    <component base="che-cy"/>
  </outline>
</glyph>
<glyph name="endash" format="2">
  <advance width="594"/>
  <unicode hex="2013"/>
  <outline>
    <contour>
      <point x="28" y="261" type="line"/>
      <point x="566" y="261" type="line"/>
      <point x="566" y="393" type="line"/>
      <point x="29" y="393" type="line"/>
    </contour>
  </outline>
</glyph>
<glyph name="quoteright" format="2">
  <advance width="235"/>
  <unicode hex="2019"/>
  <outline>
    <contour>
      <point x="122" y="431" type="line"/>
      <point x="157" y="469"/>
      <point x="198" y="546"/>
      <point x="198" y="657" type="curve" smooth="yes"/>
      <point x="198" y="693"/>
      <point x="193" y="732"/>
      <point x="193" y="732" type="curve"/>
      <point x="62" y="732" type="line"/>
      <point x="62" y="732"/>
      <point x="68" y="652"/>
      <point x="68" y="609" type="curve" smooth="yes"/>
      <point x="68" y="550"/>
      <point x="59" y="507"/>
      <point x="44" y="477" type="curve"/>
    </contour>
  </outline>
</glyph>
<glyph name="quotedblright" format="2">
  <advance width="456"/>
  <unicode hex="201D"/>
  <outline>
    <contour>
      <point x="345" y="429" type="line"/>
      <point x="380" y="467"/>
      <point x="419" y="546"/>
      <point x="419" y="657" type="curve" smooth="yes"/>
      <point x="419" y="693"/>
      <point x="414" y="732"/>
      <point x="414" y="732" type="curve"/>
      <point x="283" y="732" type="line"/>
      <point x="283" y="732"/>
      <point x="289" y="652"/>
      <point x="289" y="609" type="curve" smooth="yes"/>
      <point x="289" y="550"/>
      <point x="280" y="501"/>
      <point x="265" y="471" type="curve"/>
    </contour>
    <contour>
      <point x="110" y="447" type="line"/>
      <point x="146" y="485"/>
      <point x="191" y="551"/>
      <point x="191" y="662" type="curve" smooth="yes"/>
      <point x="191" y="698"/>
      <point x="187" y="732"/>
      <point x="187" y="732" type="curve"/>
      <point x="55" y="732" type="line"/>
      <point x="55" y="732"/>
      <point x="61" y="657"/>
      <point x="61" y="614" type="curve" smooth="yes"/>
      <point x="61" y="555"/>
      <point x="54" y="516"/>
      <point x="38" y="486" type="curve"/>
    </contour>
  </outline>
</glyph>
<glyph name="guilsinglleft" format="2">
  <advance width="312"/>
  <unicode hex="2039"/>
  <outline>
    <contour>
      <point x="177" y="78" type="line"/>
      <point x="295" y="148" type="line"/>
      <point x="172" y="342" type="line"/>
      <point x="172" y="348" type="line"/>
      <point x="295" y="542" type="line"/>
      <point x="177" y="612" type="line"/>
      <point x="18" y="345" type="line"/>
    </contour>
  </outline>
</glyph>
<glyph name="foursuperior" format="2">
  <advance width="432"/>
  <unicode hex="2074"/>
  <outline>
    <contour>
      <point x="239" y="298" type="line"/>
      <point x="356" y="298" type="line"/>
      <point x="356" y="373" type="line"/>
      <point x="400" y="373" type="line"/>
      <point x="400" y="478" type="line"/>
      <point x="356" y="477" type="line"/>
      <point x="356" y="617" type="line"/>
      <point x="255" y="617" type="line"/>
      <point x="241" y="477" type="line"/>
      <point x="163" y="476" type="line"/>
      <point x="163" y="480" type="line"/>
      <point x="256" y="719" type="line"/>
      <point x="149" y="730" type="line"/>
      <point x="42" y="459" type="line"/>
      <point x="42" y="373" type="line"/>
      <point x="240" y="373" type="line"/>
    </contour>
  </outline>
</glyph>
<glyph name="Euro" format="2">
  <advance width="618"/>
  <unicode hex="20AC"/>
  <outline>
    <contour>
      <point x="365" y="-13" type="curve" smooth="yes"/>
      <point x="515" y="-13"/>
      <point x="602" y="36"/>
      <point x="602" y="36" type="curve"/>
      <point x="565" y="150" type="line"/>
      <point x="565" y="150"/>
      <point x="466" y="121"/>
      <point x="365" y="121" type="curve" smooth="yes"/>
      <point x="330" y="121"/>
      <point x="308" y="129"/>
      <point x="294" y="139" type="curve" smooth="yes"/>
      <point x="279" y="150"/>
      <point x="264" y="178"/>
      <point x="255" y="226" type="curve"/>
      <point x="522" y="226" type="line"/>
      <point x="522" y="324" type="line"/>
      <point x="24" y="324" type="line"/>
      <point x="24" y="226" type="line"/>
      <point x="91" y="226" type="line"/>
      <point x="122" y="54"/>
      <point x="225" y="-13"/>
    </contour>
    <contour>
      <point x="24" y="389" type="line"/>
      <point x="522" y="389" type="line"/>
      <point x="522" y="487" type="line"/>
      <point x="255" y="487" type="line"/>
      <point x="263" y="527"/>
      <point x="275" y="548"/>
      <point x="290" y="560" type="curve" smooth="yes"/>
      <point x="305" y="572"/>
      <point x="334" y="578"/>
      <point x="389" y="578" type="curve" smooth="yes"/>
      <point x="454" y="578"/>
      <point x="536" y="568"/>
      <point x="569" y="564" type="curve"/>
      <point x="586" y="691" type="line"/>
      <point x="535" y="704"/>
      <point x="433" y="716"/>
      <point x="382" y="716" type="curve" smooth="yes"/>
      <point x="241" y="716"/>
      <point x="128" y="673"/>
      <point x="92" y="487" type="curve"/>
      <point x="24" y="487" type="line"/>
    </contour>
  </outline>
</glyph>
<glyph name="rightArrow" format="2">
  <advance width="830"/>
  <unicode hex="2192"/>
  <outline>
    <contour>
      <point x="747" y="0" type="line"/>
      <point x="747" y="703" type="line"/>
      <point x="579" y="703" type="line"/>
      <point x="597" y="242" type="line"/>
      <point x="141" y="716" type="line"/>
      <point x="31" y="607" type="line"/>
      <point x="489" y="139" type="line"/>
      <point x="48" y="151" type="line"/>
      <point x="48" y="0" type="line"/>
    </contour>
  </outline>
</glyph>
<glyph name="notequal" format="2">
  <advance width="643"/>
  <unicode hex="2260"/>
  <outline>
    <contour>
      <point x="30" y="371" type="line"/>
      <point x="619" y="371" type="line"/>
      <point x="619" y="504" type="line"/>
      <point x="30" y="504" type="line"/>
    </contour>
    <contour>
      <point x="30" y="79" type="line"/>
      <point x="619" y="79" type="line"/>
      <point x="619" y="212" type="line"/>
      <point x="30" y="212" type="line"/>
    </contour>
    <contour>
      <point x="97" y="0" type="line"/>
      <point x="242" y="0" type="line"/>
      <point x="361" y="258" type="line"/>
      <point x="527" y="588" type="line"/>
      <point x="383" y="588" type="line"/>
      <point x="266" y="321" type="line"/>
    </contour>
  </outline>
</glyph>
<glyph name="acutecomb.case" format="2">
  <outline>
    <contour>
      <point x="20" y="750" type="line"/>
      <point x="322" y="800" type="line"/>
      <point x="294" y="910" type="line"/>
      <point x="0" y="833" type="line"/>
    </contour>
  </outline>
</glyph>
<glyph name="caroncmbalt.case" format="2">
  <outline>
    <contour>
      <point x="61" y="443" type="line"/>
      <point x="145" y="443" type="line"/>
      <point x="165" y="703" type="line"/>
      <point x="42.0" y="703" type="line"/>
    </contour>
  </outline>
</glyph>
<glyph name="caroncmbalt" format="2">
  <outline>
    <contour>
      <point x="63" y="501" type="line"/>
      <point x="143" y="501" type="line"/>
      <point x="163" y="761" type="line"/>
      <point x="44.0" y="761" type="line"/>
    </contour>
  </outline>
</glyph>
<glyph name="caroncomb.case" format="2">
  <outline>
    <contour>
      <point x="167" y="749" type="line"/>
      <point x="240" y="749" type="line"/>
      <point x="407" y="849" type="line"/>
      <point x="374" y="910" type="line"/>
      <point x="207" y="851" type="line"/>
      <point x="200" y="851" type="line"/>
      <point x="33" y="910" type="line"/>
      <point x="0" y="849" type="line"/>
    </contour>
  </outline>
</glyph>
<glyph name="gravecomb.case" format="2">
  <outline>
    <contour>
      <point x="309" y="751" type="line"/>
      <point x="323" y="835" type="line"/>
      <point x="21" y="906" type="line"/>
      <point x="1" y="793" type="line"/>
    </contour>
  </outline>
</glyph>
<glyph name="hungarumlautcomb.case" format="2">
  <outline>
    <contour>
      <point x="11" y="750" type="line"/>
      <point x="282" y="800" type="line"/>
      <point x="254" y="910" type="line"/>
      <point x="-10" y="833" type="line"/>
    </contour>
    <contour>
      <point x="346" y="750" type="line"/>
      <point x="620" y="800" type="line"/>
      <point x="592" y="910" type="line"/>
      <point x="325" y="833" type="line"/>
    </contour>
  </outline>
</glyph>
<glyph name="macroncomb.case" format="2">
  <guideline x="540" y="990" angle="0" identifier="CY8Hu7CUHA"/>
  <outline>
    <contour>
      <point x="0" y="775" type="line"/>
      <point x="392" y="775" type="line"/>
      <point x="392" y="871" type="line"/>
      <point x="0" y="871" type="line"/>
    </contour>
  </outline>
</glyph>
